<svg width="2312" height="283" viewBox="0 0 2312 283" fill="none" xmlns="http://www.w3.org/2000/svg">
<g filter="url(#filter0_f_222_442)">
<rect width="107.669" height="37.0326" transform="matrix(0.00121112 -0.999999 1 0.000707143 21 195.791)" fill="white"/>
</g>
<g filter="url(#filter1_f_222_442)">
<rect width="107.669" height="37.0326" transform="matrix(0.00121112 -0.999999 1 0.000707143 21 195.791)" fill="white"/>
</g>
<rect width="107.669" height="37.0326" transform="matrix(0.00121112 -0.999999 1 0.000707143 21 195.791)" fill="white"/>
<rect x="8.78322" y="-8.76609" width="223.199" height="368.773" transform="matrix(0.00128768 -0.999999 1 0.000665101 67.913 261.765)" stroke="white" stroke-width="17.5439"/>
<g filter="url(#filter2_f_222_442)">
<rect x="7.50966" y="-7.49501" width="225.743" height="371.317" transform="matrix(0.00128768 -0.999999 1 0.000665101 65.37 261.762)" stroke="white" stroke-width="15"/>
</g>
<g filter="url(#filter3_f_222_442)">
<rect width="38.0621" height="155.984" transform="matrix(0.999999 0.00151305 0.000566036 -1 796.852 218.984)" fill="white"/>
</g>
<rect width="38.0621" height="155.984" transform="matrix(0.999999 0.00151305 0.000566036 -1 796.852 218.984)" fill="white"/>
<g filter="url(#filter4_f_222_442)">
<rect width="107.669" height="37.0326" transform="matrix(0.00121112 -0.999999 1 0.000707143 485 195.791)" fill="white"/>
</g>
<g filter="url(#filter5_f_222_442)">
<rect width="107.669" height="37.0326" transform="matrix(0.00121112 -0.999999 1 0.000707143 485 195.791)" fill="white"/>
</g>
<rect width="107.669" height="37.0326" transform="matrix(0.00121112 -0.999999 1 0.000707143 485 195.791)" fill="white"/>
<rect x="8.78322" y="-8.76609" width="223.199" height="368.773" transform="matrix(0.00128768 -0.999999 1 0.000665101 531.913 261.765)" stroke="white" stroke-width="17.5439"/>
<g filter="url(#filter6_f_222_442)">
<rect x="7.50966" y="-7.49501" width="225.743" height="371.317" transform="matrix(0.00128768 -0.999999 1 0.000665101 529.37 261.762)" stroke="white" stroke-width="15"/>
</g>
<g filter="url(#filter7_f_222_442)">
<rect width="38.0621" height="155.984" transform="matrix(0.999999 0.00151305 0.000566036 -1 1259.85 218.984)" fill="white"/>
</g>
<rect width="38.0621" height="155.984" transform="matrix(0.999999 0.00151305 0.000566036 -1 1259.85 218.984)" fill="white"/>
<g filter="url(#filter8_f_222_442)">
<rect width="38.0621" height="155.984" transform="matrix(0.999999 0.00151305 0.000566036 -1 1187.9 218.984)" fill="white"/>
</g>
<rect width="38.0621" height="155.984" transform="matrix(0.999999 0.00151305 0.000566036 -1 1187.9 218.984)" fill="white"/>
<g filter="url(#filter9_f_222_442)">
<rect width="107.669" height="37.0326" transform="matrix(0.00121112 -0.999999 1 0.000707143 948 195.791)" fill="white"/>
</g>
<g filter="url(#filter10_f_222_442)">
<rect width="107.669" height="37.0326" transform="matrix(0.00121112 -0.999999 1 0.000707143 948 195.791)" fill="white"/>
</g>
<rect width="107.669" height="37.0326" transform="matrix(0.00121112 -0.999999 1 0.000707143 948 195.791)" fill="white"/>
<rect x="8.78322" y="-8.76609" width="223.199" height="368.773" transform="matrix(0.00128768 -0.999999 1 0.000665101 994.913 261.765)" stroke="white" stroke-width="17.5439"/>
<g filter="url(#filter11_f_222_442)">
<rect x="7.50966" y="-7.49501" width="225.743" height="371.317" transform="matrix(0.00128768 -0.999999 1 0.000665101 992.37 261.762)" stroke="white" stroke-width="15"/>
</g>
<g filter="url(#filter12_f_222_442)">
<rect width="38.0621" height="155.984" transform="matrix(0.999999 0.00151305 0.000566036 -1 1722.85 218.984)" fill="white"/>
</g>
<rect width="38.0621" height="155.984" transform="matrix(0.999999 0.00151305 0.000566036 -1 1722.85 218.984)" fill="white"/>
<g filter="url(#filter13_f_222_442)">
<rect width="38.0621" height="155.984" transform="matrix(0.999999 0.00151305 0.000566036 -1 1650.9 218.984)" fill="white"/>
</g>
<rect width="38.0621" height="155.984" transform="matrix(0.999999 0.00151305 0.000566036 -1 1650.9 218.984)" fill="white"/>
<g filter="url(#filter14_f_222_442)">
<rect width="38.0621" height="155.984" transform="matrix(0.999999 0.00151305 0.000566036 -1 1578.95 218.984)" fill="white"/>
</g>
<rect width="38.0621" height="155.984" transform="matrix(0.999999 0.00151305 0.000566036 -1 1578.95 218.984)" fill="white"/>
<g filter="url(#filter15_f_222_442)">
<rect width="107.669" height="37.0326" transform="matrix(0.00121112 -0.999999 1 0.000707143 1411 195.791)" fill="white"/>
</g>
<g filter="url(#filter16_f_222_442)">
<rect width="107.669" height="37.0326" transform="matrix(0.00121112 -0.999999 1 0.000707143 1411 195.791)" fill="white"/>
</g>
<rect width="107.669" height="37.0326" transform="matrix(0.00121112 -0.999999 1 0.000707143 1411 195.791)" fill="white"/>
<rect x="8.78322" y="-8.76609" width="223.199" height="368.773" transform="matrix(0.00128768 -0.999999 1 0.000665101 1457.91 261.765)" stroke="white" stroke-width="17.5439"/>
<g filter="url(#filter17_f_222_442)">
<rect x="7.50966" y="-7.49501" width="225.743" height="371.317" transform="matrix(0.00128768 -0.999999 1 0.000665101 1455.37 261.762)" stroke="white" stroke-width="15"/>
</g>
<g filter="url(#filter18_f_222_442)">
<rect width="38.0621" height="155.984" transform="matrix(0.999999 0.00151305 0.000566036 -1 2186.85 218.984)" fill="white"/>
</g>
<rect width="38.0621" height="155.984" transform="matrix(0.999999 0.00151305 0.000566036 -1 2186.85 218.984)" fill="white"/>
<g filter="url(#filter19_f_222_442)">
<rect width="38.0621" height="155.984" transform="matrix(0.999999 0.00151305 0.000566036 -1 2114.9 218.984)" fill="white"/>
</g>
<rect width="38.0621" height="155.984" transform="matrix(0.999999 0.00151305 0.000566036 -1 2114.9 218.984)" fill="white"/>
<g filter="url(#filter20_f_222_442)">
<rect width="38.0621" height="155.984" transform="matrix(0.999999 0.00151305 0.000566036 -1 2042.95 218.984)" fill="white"/>
</g>
<rect width="38.0621" height="155.984" transform="matrix(0.999999 0.00151305 0.000566036 -1 2042.95 218.984)" fill="white"/>
<g filter="url(#filter21_f_222_442)">
<rect width="38.0621" height="155.984" transform="matrix(0.999999 0.00151305 0.000566036 -1 1971 218.984)" fill="white"/>
</g>
<rect width="38.0621" height="155.984" transform="matrix(0.999999 0.00151305 0.000566036 -1 1971 218.984)" fill="white"/>
<g filter="url(#filter22_f_222_442)">
<rect width="107.669" height="37.0326" transform="matrix(0.00121112 -0.999999 1 0.000707143 1875 195.791)" fill="white"/>
</g>
<g filter="url(#filter23_f_222_442)">
<rect width="107.669" height="37.0326" transform="matrix(0.00121112 -0.999999 1 0.000707143 1875 195.791)" fill="white"/>
</g>
<rect width="107.669" height="37.0326" transform="matrix(0.00121112 -0.999999 1 0.000707143 1875 195.791)" fill="white"/>
<rect x="8.78322" y="-8.76609" width="223.199" height="368.773" transform="matrix(0.00128768 -0.999999 1 0.000665101 1921.91 261.765)" stroke="white" stroke-width="17.5439"/>
<g filter="url(#filter24_f_222_442)">
<rect x="7.50966" y="-7.49501" width="225.743" height="371.317" transform="matrix(0.00128768 -0.999999 1 0.000665101 1919.37 261.762)" stroke="white" stroke-width="15"/>
</g>
<defs>
<filter id="filter0_f_222_442" x="4.8" y="71.9211" width="69.5641" height="140.095" filterUnits="userSpaceOnUse" color-interpolation-filters="sRGB">
<feFlood flood-opacity="0" result="BackgroundImageFix"/>
<feBlend mode="normal" in="SourceGraphic" in2="BackgroundImageFix" result="shape"/>
<feGaussianBlur stdDeviation="8.1" result="effect1_foregroundBlur_222_442"/>
</filter>
<filter id="filter1_f_222_442" x="0.200001" y="67.3211" width="78.7641" height="149.295" filterUnits="userSpaceOnUse" color-interpolation-filters="sRGB">
<feFlood flood-opacity="0" result="BackgroundImageFix"/>
<feBlend mode="normal" in="SourceGraphic" in2="BackgroundImageFix" result="shape"/>
<feGaussianBlur stdDeviation="10.4" result="effect1_foregroundBlur_222_442"/>
</filter>
<filter id="filter2_f_222_442" x="29.575" y="0.200001" width="428.225" height="282.6" filterUnits="userSpaceOnUse" color-interpolation-filters="sRGB">
<feFlood flood-opacity="0" result="BackgroundImageFix"/>
<feBlend mode="normal" in="SourceGraphic" in2="BackgroundImageFix" result="shape"/>
<feGaussianBlur stdDeviation="10.4" result="effect1_foregroundBlur_222_442"/>
</filter>
<filter id="filter3_f_222_442" x="783.252" y="49.4" width="65.3484" height="183.241" filterUnits="userSpaceOnUse" color-interpolation-filters="sRGB">
<feFlood flood-opacity="0" result="BackgroundImageFix"/>
<feBlend mode="normal" in="SourceGraphic" in2="BackgroundImageFix" result="shape"/>
<feGaussianBlur stdDeviation="6.8" result="effect1_foregroundBlur_222_442"/>
</filter>
<filter id="filter4_f_222_442" x="468.8" y="71.9211" width="69.5641" height="140.095" filterUnits="userSpaceOnUse" color-interpolation-filters="sRGB">
<feFlood flood-opacity="0" result="BackgroundImageFix"/>
<feBlend mode="normal" in="SourceGraphic" in2="BackgroundImageFix" result="shape"/>
<feGaussianBlur stdDeviation="8.1" result="effect1_foregroundBlur_222_442"/>
</filter>
<filter id="filter5_f_222_442" x="464.2" y="67.3211" width="78.7641" height="149.295" filterUnits="userSpaceOnUse" color-interpolation-filters="sRGB">
<feFlood flood-opacity="0" result="BackgroundImageFix"/>
<feBlend mode="normal" in="SourceGraphic" in2="BackgroundImageFix" result="shape"/>
<feGaussianBlur stdDeviation="10.4" result="effect1_foregroundBlur_222_442"/>
</filter>
<filter id="filter6_f_222_442" x="493.575" y="0.200001" width="428.225" height="282.6" filterUnits="userSpaceOnUse" color-interpolation-filters="sRGB">
<feFlood flood-opacity="0" result="BackgroundImageFix"/>
<feBlend mode="normal" in="SourceGraphic" in2="BackgroundImageFix" result="shape"/>
<feGaussianBlur stdDeviation="10.4" result="effect1_foregroundBlur_222_442"/>
</filter>
<filter id="filter7_f_222_442" x="1246.25" y="49.4" width="65.3484" height="183.241" filterUnits="userSpaceOnUse" color-interpolation-filters="sRGB">
<feFlood flood-opacity="0" result="BackgroundImageFix"/>
<feBlend mode="normal" in="SourceGraphic" in2="BackgroundImageFix" result="shape"/>
<feGaussianBlur stdDeviation="6.8" result="effect1_foregroundBlur_222_442"/>
</filter>
<filter id="filter8_f_222_442" x="1174.3" y="49.4" width="65.3484" height="183.241" filterUnits="userSpaceOnUse" color-interpolation-filters="sRGB">
<feFlood flood-opacity="0" result="BackgroundImageFix"/>
<feBlend mode="normal" in="SourceGraphic" in2="BackgroundImageFix" result="shape"/>
<feGaussianBlur stdDeviation="6.8" result="effect1_foregroundBlur_222_442"/>
</filter>
<filter id="filter9_f_222_442" x="931.8" y="71.9211" width="69.5641" height="140.095" filterUnits="userSpaceOnUse" color-interpolation-filters="sRGB">
<feFlood flood-opacity="0" result="BackgroundImageFix"/>
<feBlend mode="normal" in="SourceGraphic" in2="BackgroundImageFix" result="shape"/>
<feGaussianBlur stdDeviation="8.1" result="effect1_foregroundBlur_222_442"/>
</filter>
<filter id="filter10_f_222_442" x="927.2" y="67.3211" width="78.7641" height="149.295" filterUnits="userSpaceOnUse" color-interpolation-filters="sRGB">
<feFlood flood-opacity="0" result="BackgroundImageFix"/>
<feBlend mode="normal" in="SourceGraphic" in2="BackgroundImageFix" result="shape"/>
<feGaussianBlur stdDeviation="10.4" result="effect1_foregroundBlur_222_442"/>
</filter>
<filter id="filter11_f_222_442" x="956.575" y="0.200001" width="428.225" height="282.6" filterUnits="userSpaceOnUse" color-interpolation-filters="sRGB">
<feFlood flood-opacity="0" result="BackgroundImageFix"/>
<feBlend mode="normal" in="SourceGraphic" in2="BackgroundImageFix" result="shape"/>
<feGaussianBlur stdDeviation="10.4" result="effect1_foregroundBlur_222_442"/>
</filter>
<filter id="filter12_f_222_442" x="1709.25" y="49.4" width="65.3484" height="183.241" filterUnits="userSpaceOnUse" color-interpolation-filters="sRGB">
<feFlood flood-opacity="0" result="BackgroundImageFix"/>
<feBlend mode="normal" in="SourceGraphic" in2="BackgroundImageFix" result="shape"/>
<feGaussianBlur stdDeviation="6.8" result="effect1_foregroundBlur_222_442"/>
</filter>
<filter id="filter13_f_222_442" x="1637.3" y="49.4" width="65.3484" height="183.241" filterUnits="userSpaceOnUse" color-interpolation-filters="sRGB">
<feFlood flood-opacity="0" result="BackgroundImageFix"/>
<feBlend mode="normal" in="SourceGraphic" in2="BackgroundImageFix" result="shape"/>
<feGaussianBlur stdDeviation="6.8" result="effect1_foregroundBlur_222_442"/>
</filter>
<filter id="filter14_f_222_442" x="1565.35" y="49.4" width="65.3484" height="183.241" filterUnits="userSpaceOnUse" color-interpolation-filters="sRGB">
<feFlood flood-opacity="0" result="BackgroundImageFix"/>
<feBlend mode="normal" in="SourceGraphic" in2="BackgroundImageFix" result="shape"/>
<feGaussianBlur stdDeviation="6.8" result="effect1_foregroundBlur_222_442"/>
</filter>
<filter id="filter15_f_222_442" x="1394.8" y="71.9211" width="69.5641" height="140.095" filterUnits="userSpaceOnUse" color-interpolation-filters="sRGB">
<feFlood flood-opacity="0" result="BackgroundImageFix"/>
<feBlend mode="normal" in="SourceGraphic" in2="BackgroundImageFix" result="shape"/>
<feGaussianBlur stdDeviation="8.1" result="effect1_foregroundBlur_222_442"/>
</filter>
<filter id="filter16_f_222_442" x="1390.2" y="67.3211" width="78.7641" height="149.295" filterUnits="userSpaceOnUse" color-interpolation-filters="sRGB">
<feFlood flood-opacity="0" result="BackgroundImageFix"/>
<feBlend mode="normal" in="SourceGraphic" in2="BackgroundImageFix" result="shape"/>
<feGaussianBlur stdDeviation="10.4" result="effect1_foregroundBlur_222_442"/>
</filter>
<filter id="filter17_f_222_442" x="1419.58" y="0.200001" width="428.225" height="282.6" filterUnits="userSpaceOnUse" color-interpolation-filters="sRGB">
<feFlood flood-opacity="0" result="BackgroundImageFix"/>
<feBlend mode="normal" in="SourceGraphic" in2="BackgroundImageFix" result="shape"/>
<feGaussianBlur stdDeviation="10.4" result="effect1_foregroundBlur_222_442"/>
</filter>
<filter id="filter18_f_222_442" x="2173.25" y="49.4" width="65.3484" height="183.241" filterUnits="userSpaceOnUse" color-interpolation-filters="sRGB">
<feFlood flood-opacity="0" result="BackgroundImageFix"/>
<feBlend mode="normal" in="SourceGraphic" in2="BackgroundImageFix" result="shape"/>
<feGaussianBlur stdDeviation="6.8" result="effect1_foregroundBlur_222_442"/>
</filter>
<filter id="filter19_f_222_442" x="2101.3" y="49.4" width="65.3484" height="183.241" filterUnits="userSpaceOnUse" color-interpolation-filters="sRGB">
<feFlood flood-opacity="0" result="BackgroundImageFix"/>
<feBlend mode="normal" in="SourceGraphic" in2="BackgroundImageFix" result="shape"/>
<feGaussianBlur stdDeviation="6.8" result="effect1_foregroundBlur_222_442"/>
</filter>
<filter id="filter20_f_222_442" x="2029.35" y="49.4" width="65.3484" height="183.241" filterUnits="userSpaceOnUse" color-interpolation-filters="sRGB">
<feFlood flood-opacity="0" result="BackgroundImageFix"/>
<feBlend mode="normal" in="SourceGraphic" in2="BackgroundImageFix" result="shape"/>
<feGaussianBlur stdDeviation="6.8" result="effect1_foregroundBlur_222_442"/>
</filter>
<filter id="filter21_f_222_442" x="1957.4" y="49.4" width="65.3484" height="183.241" filterUnits="userSpaceOnUse" color-interpolation-filters="sRGB">
<feFlood flood-opacity="0" result="BackgroundImageFix"/>
<feBlend mode="normal" in="SourceGraphic" in2="BackgroundImageFix" result="shape"/>
<feGaussianBlur stdDeviation="6.8" result="effect1_foregroundBlur_222_442"/>
</filter>
<filter id="filter22_f_222_442" x="1858.8" y="71.9211" width="69.5641" height="140.095" filterUnits="userSpaceOnUse" color-interpolation-filters="sRGB">
<feFlood flood-opacity="0" result="BackgroundImageFix"/>
<feBlend mode="normal" in="SourceGraphic" in2="BackgroundImageFix" result="shape"/>
<feGaussianBlur stdDeviation="8.1" result="effect1_foregroundBlur_222_442"/>
</filter>
<filter id="filter23_f_222_442" x="1854.2" y="67.3211" width="78.7641" height="149.295" filterUnits="userSpaceOnUse" color-interpolation-filters="sRGB">
<feFlood flood-opacity="0" result="BackgroundImageFix"/>
<feBlend mode="normal" in="SourceGraphic" in2="BackgroundImageFix" result="shape"/>
<feGaussianBlur stdDeviation="10.4" result="effect1_foregroundBlur_222_442"/>
</filter>
<filter id="filter24_f_222_442" x="1883.58" y="0.200001" width="428.225" height="282.6" filterUnits="userSpaceOnUse" color-interpolation-filters="sRGB">
<feFlood flood-opacity="0" result="BackgroundImageFix"/>
<feBlend mode="normal" in="SourceGraphic" in2="BackgroundImageFix" result="shape"/>
<feGaussianBlur stdDeviation="10.4" result="effect1_foregroundBlur_222_442"/>
</filter>
</defs>
</svg>
