<svg width="458" height="283" viewBox="0 0 458 283" fill="none" xmlns="http://www.w3.org/2000/svg">
<g filter="url(#filter0_f_144_147)">
<rect width="38.0621" height="155.984" transform="matrix(0.999999 0.00151305 0.000566036 -1 332.852 218.984)" fill="white"/>
</g>
<rect width="38.0621" height="155.984" transform="matrix(0.999999 0.00151305 0.000566036 -1 332.852 218.984)" fill="white"/>
<g filter="url(#filter1_f_144_147)">
<rect width="38.0621" height="155.984" transform="matrix(0.999999 0.00151305 0.000566036 -1 260.898 218.984)" fill="white"/>
</g>
<rect width="38.0621" height="155.984" transform="matrix(0.999999 0.00151305 0.000566036 -1 260.898 218.984)" fill="white"/>
<g filter="url(#filter2_f_144_147)">
<rect width="107.669" height="37.0326" transform="matrix(0.00121112 -0.999999 1 0.000707143 21 195.791)" fill="white"/>
</g>
<g filter="url(#filter3_f_144_147)">
<rect width="107.669" height="37.0326" transform="matrix(0.00121112 -0.999999 1 0.000707143 21 195.791)" fill="white"/>
</g>
<rect width="107.669" height="37.0326" transform="matrix(0.00121112 -0.999999 1 0.000707143 21 195.791)" fill="white"/>
<rect x="8.78322" y="-8.76609" width="223.199" height="368.773" transform="matrix(0.00128768 -0.999999 1 0.000665101 67.913 261.765)" stroke="white" stroke-width="17.5439"/>
<g filter="url(#filter4_f_144_147)">
<rect x="7.50966" y="-7.49501" width="225.743" height="371.317" transform="matrix(0.00128768 -0.999999 1 0.000665101 65.37 261.762)" stroke="white" stroke-width="15"/>
</g>
<defs>
<filter id="filter0_f_144_147" x="319.252" y="49.4" width="65.3484" height="183.241" filterUnits="userSpaceOnUse" color-interpolation-filters="sRGB">
<feFlood flood-opacity="0" result="BackgroundImageFix"/>
<feBlend mode="normal" in="SourceGraphic" in2="BackgroundImageFix" result="shape"/>
<feGaussianBlur stdDeviation="6.8" result="effect1_foregroundBlur_144_147"/>
</filter>
<filter id="filter1_f_144_147" x="247.298" y="49.4" width="65.3484" height="183.241" filterUnits="userSpaceOnUse" color-interpolation-filters="sRGB">
<feFlood flood-opacity="0" result="BackgroundImageFix"/>
<feBlend mode="normal" in="SourceGraphic" in2="BackgroundImageFix" result="shape"/>
<feGaussianBlur stdDeviation="6.8" result="effect1_foregroundBlur_144_147"/>
</filter>
<filter id="filter2_f_144_147" x="4.8" y="71.9211" width="69.5641" height="140.095" filterUnits="userSpaceOnUse" color-interpolation-filters="sRGB">
<feFlood flood-opacity="0" result="BackgroundImageFix"/>
<feBlend mode="normal" in="SourceGraphic" in2="BackgroundImageFix" result="shape"/>
<feGaussianBlur stdDeviation="8.1" result="effect1_foregroundBlur_144_147"/>
</filter>
<filter id="filter3_f_144_147" x="0.200001" y="67.3211" width="78.7641" height="149.295" filterUnits="userSpaceOnUse" color-interpolation-filters="sRGB">
<feFlood flood-opacity="0" result="BackgroundImageFix"/>
<feBlend mode="normal" in="SourceGraphic" in2="BackgroundImageFix" result="shape"/>
<feGaussianBlur stdDeviation="10.4" result="effect1_foregroundBlur_144_147"/>
</filter>
<filter id="filter4_f_144_147" x="29.575" y="0.200001" width="428.225" height="282.6" filterUnits="userSpaceOnUse" color-interpolation-filters="sRGB">
<feFlood flood-opacity="0" result="BackgroundImageFix"/>
<feBlend mode="normal" in="SourceGraphic" in2="BackgroundImageFix" result="shape"/>
<feGaussianBlur stdDeviation="10.4" result="effect1_foregroundBlur_144_147"/>
</filter>
</defs>
</svg>
