<svg width="815" height="1988" viewBox="0 0 815 1988" fill="none" xmlns="http://www.w3.org/2000/svg">
<rect y="753" width="35" height="815" transform="rotate(-90 0 753)" fill="#70E3FF"/>
<rect y="826" width="36" height="815" transform="rotate(-90 0 826)" fill="#70E3FF"/>
<rect y="899" width="36" height="815" transform="rotate(-90 0 899)" fill="#70E3FF"/>
<rect y="971" width="36" height="815" transform="rotate(-90 0 971)" fill="#70E3FF"/>
<rect y="1044" width="36" height="815" transform="rotate(-90 0 1044)" fill="#70E3FF"/>
<rect y="1116" width="36" height="815" transform="rotate(-90 0 1116)" fill="#70E3FF"/>
<rect y="1189" width="36" height="815" transform="rotate(-90 0 1189)" fill="#70E3FF"/>
<rect y="1261" width="35" height="815" transform="rotate(-90 0 1261)" fill="#70E3FF"/>
<rect y="1334" width="36" height="815" transform="rotate(-90 0 1334)" fill="#70E3FF"/>
<rect y="1407" width="36" height="815" transform="rotate(-90 0 1407)" fill="#70E3FF"/>
<rect y="1479" width="36" height="815" transform="rotate(-90 0 1479)" fill="#70E3FF"/>
<rect y="1552" width="36" height="815" transform="rotate(-90 0 1552)" fill="#70E3FF"/>
<rect y="1624" width="36" height="815" transform="rotate(-90 0 1624)" fill="#70E3FF"/>
<rect y="1697" width="36" height="815" transform="rotate(-90 0 1697)" fill="#70E3FF"/>
<rect y="1769" width="35" height="815" transform="rotate(-90 0 1769)" fill="#70E3FF"/>
<rect y="1842" width="36" height="815" transform="rotate(-90 0 1842)" fill="#70E3FF"/>
<rect y="1915" width="36" height="815" transform="rotate(-90 0 1915)" fill="#70E3FF"/>
<rect y="1915" width="36" height="815" transform="rotate(-90 0 1915)" fill="#70E3FF"/>
<rect y="1988" width="36" height="815" transform="rotate(-90 0 1988)" fill="#70E3FF"/>
<rect y="682" width="36" height="815" transform="rotate(-90 0 682)" fill="#70E3FF"/>
<rect y="682" width="36" height="815" transform="rotate(-90 0 682)" fill="#70E3FF"/>
<rect y="610" width="36" height="815" transform="rotate(-90 0 610)" fill="#70E3FF"/>
<rect y="538" width="35" height="815" transform="rotate(-90 0 538)" fill="#70E3FF"/>
<rect y="467" width="36" height="815" transform="rotate(-90 0 467)" fill="#70E3FF"/>
<rect y="395" width="36" height="815" transform="rotate(-90 0 395)" fill="#70E3FF"/>
<rect y="323" width="35" height="815" transform="rotate(-90 0 323)" fill="#70E3FF"/>
<rect y="252" width="36" height="815" transform="rotate(-90 0 252)" fill="#70E3FF"/>
<rect y="180" width="36" height="815" transform="rotate(-90 0 180)" fill="#70E3FF"/>
<rect y="109" width="36" height="815" transform="rotate(-90 0 109)" fill="#70E3FF"/>
<rect y="36" width="36" height="815" transform="rotate(-90 0 36)" fill="#70E3FF"/>
</svg>
