<svg width="478" height="651" viewBox="0 0 478 651" fill="none" xmlns="http://www.w3.org/2000/svg">
<path d="M90.4518 406.736C73.0279 399.6 56.9378 387.727 43.2249 371.887C31.5409 357.572 25.6992 342.552 25.6992 326.828C25.6992 311.105 31.5409 295.969 43.2249 281.419C56.873 265.378 72.9777 253.374 90.4518 246.218C111.248 237.158 133.031 232.641 154.937 232.842C171.044 232.891 187.096 235.331 202.787 240.117L213.668 243.46L179.866 280.07C171.597 278.721 163.268 278.114 154.937 278.252C142.931 278.391 130.97 280.22 119.26 283.708C108.33 286.649 97.9022 292.197 88.4899 300.077C84.856 302.683 81.7986 306.486 79.6176 311.114C77.4366 315.742 76.2066 321.036 76.0476 326.477C76.088 332.12 77.2439 337.649 79.4021 342.525C81.5602 347.401 84.6461 351.455 88.356 354.286C97.5907 362.102 107.913 367.426 118.725 369.95C130.653 373.18 142.803 374.773 154.981 374.703C163.216 374.663 171.44 373.897 179.598 372.414L213.534 409.082C194.491 416.245 174.788 419.918 154.981 419.995C133.069 420.184 111.277 415.707 90.4518 406.736Z" fill="#F341F3"/>
<path d="M241.36 257.718C241.716 274.439 242.073 291.099 242.475 307.82L463.311 195L424.647 294.327L221.248 357.044C221.36 348.742 221.46 340.426 221.56 332.109C221.66 323.793 221.761 315.477 221.872 307.175L149.449 329.938L241.36 257.718Z" fill="#F341F3"/>
<path d="M241.36 257.718C241.716 274.439 242.073 291.099 242.475 307.82L463.311 195L424.647 294.327L221.248 357.044C221.36 348.742 221.46 340.426 221.56 332.109C221.66 323.793 221.761 315.477 221.872 307.175L149.449 329.938L241.36 257.718Z" stroke="#F341F3"/>
</svg>
