<svg width="2334" height="250" viewBox="0 0 2334 250" fill="none" xmlns="http://www.w3.org/2000/svg">
<path d="M1167 12L1231.48 81.645L1295.96 12L1360.45 81.645L1424.93 12L1489.42 81.645L1553.9 12L1618.39 81.645L1682.87 12L1747.35 81.645L1811.84 12L1876.32 81.645L1940.81 12L2005.29 81.645L2069.78 12L2134.26 81.645L2198.74 12L2263.24 81.645L2327.73 12" stroke="#FFF96F" stroke-width="15" stroke-miterlimit="10"/>
<path d="M1167 64.1328L1231.48 133.778L1295.96 64.1328L1360.45 133.778L1424.93 64.1328L1489.42 133.778L1553.9 64.1328L1618.39 133.778L1682.87 64.1328L1747.35 133.778L1811.84 64.1328L1876.32 133.778L1940.81 64.1328L2005.29 133.778L2069.78 64.1328L2134.26 133.778L2198.74 64.1328L2263.24 133.778L2327.73 64.1328" stroke="#FFF96F" stroke-width="15" stroke-miterlimit="10"/>
<path d="M1167 116.271L1231.48 185.916L1295.96 116.271L1360.45 185.916L1424.93 116.271L1489.42 185.916L1553.9 116.271L1618.39 185.916L1682.87 116.271L1747.35 185.916L1811.84 116.271L1876.32 185.916L1940.81 116.271L2005.29 185.916L2069.78 116.271L2134.26 185.916L2198.74 116.271L2263.24 185.916L2327.73 116.271" stroke="#FFF96F" stroke-width="15" stroke-miterlimit="10"/>
<path d="M1167 168.406L1231.48 238.051L1295.96 168.406L1360.45 238.051L1424.93 168.406L1489.42 238.051L1553.9 168.406L1618.39 238.051L1682.87 168.406L1747.35 238.051L1811.84 168.406L1876.32 238.051L1940.81 168.406L2005.29 238.051L2069.78 168.406L2134.26 238.051L2198.74 168.406L2263.24 238.051L2327.73 168.406" stroke="#FFF96F" stroke-width="15" stroke-miterlimit="10"/>
<path d="M1038 12L1102.48 81.645L1166.96 12L1231.45 81.645L1295.93 12L1360.42 81.645L1424.9 12L1489.39 81.645L1553.87 12L1618.35 81.645L1682.84 12L1747.32 81.645L1811.81 12L1876.29 81.645L1940.78 12L2005.26 81.645L2069.74 12L2134.24 81.645L2198.73 12" stroke="#FFF96F" stroke-width="15" stroke-miterlimit="10"/>
<path d="M1038 64.1328L1102.48 133.778L1166.96 64.1328L1231.45 133.778L1295.93 64.1328L1360.42 133.778L1424.9 64.1328L1489.39 133.778L1553.87 64.1328L1618.35 133.778L1682.84 64.1328L1747.32 133.778L1811.81 64.1328L1876.29 133.778L1940.78 64.1328L2005.26 133.778L2069.74 64.1328L2134.24 133.778L2198.73 64.1328" stroke="#FFF96F" stroke-width="15" stroke-miterlimit="10"/>
<path d="M1038 116.271L1102.48 185.916L1166.96 116.271L1231.45 185.916L1295.93 116.271L1360.42 185.916L1424.9 116.271L1489.39 185.916L1553.87 116.271L1618.35 185.916L1682.84 116.271L1747.32 185.916L1811.81 116.271L1876.29 185.916L1940.78 116.271L2005.26 185.916L2069.74 116.271L2134.24 185.916L2198.73 116.271" stroke="#FFF96F" stroke-width="15" stroke-miterlimit="10"/>
<path d="M1038 168.406L1102.48 238.051L1166.96 168.406L1231.45 238.051L1295.93 168.406L1360.42 238.051L1424.9 168.406L1489.39 238.051L1553.87 168.406L1618.35 238.051L1682.84 168.406L1747.32 238.051L1811.81 168.406L1876.29 238.051L1940.78 168.406L2005.26 238.051L2069.74 168.406L2134.24 238.051L2198.73 168.406" stroke="#FFF96F" stroke-width="15" stroke-miterlimit="10"/>
<path d="M6 12L70.482 81.645L134.964 12L199.446 81.645L263.934 12L328.416 81.645L392.898 12L457.386 81.645L521.869 12L586.351 81.645L650.839 12L715.321 81.645L779.809 12L844.291 81.645L908.779 12L973.261 81.645L1037.74 12L1102.24 81.645L1166.73 12" stroke="#FFF96F" stroke-width="15" stroke-miterlimit="10"/>
<path d="M6 64.1328L70.482 133.778L134.964 64.1328L199.446 133.778L263.934 64.1328L328.416 133.778L392.898 64.1328L457.386 133.778L521.869 64.1328L586.351 133.778L650.839 64.1328L715.321 133.778L779.809 64.1328L844.291 133.778L908.779 64.1328L973.261 133.778L1037.74 64.1328L1102.24 133.778L1166.73 64.1328" stroke="#FFF96F" stroke-width="15" stroke-miterlimit="10"/>
<path d="M6 116.271L70.482 185.916L134.964 116.271L199.446 185.916L263.934 116.271L328.416 185.916L392.898 116.271L457.386 185.916L521.869 116.271L586.351 185.916L650.839 116.271L715.321 185.916L779.809 116.271L844.291 185.916L908.779 116.271L973.261 185.916L1037.74 116.271L1102.24 185.916L1166.73 116.271" stroke="#FFF96F" stroke-width="15" stroke-miterlimit="10"/>
<path d="M6 168.406L70.482 238.051L134.964 168.406L199.446 238.051L263.934 168.406L328.416 238.051L392.898 168.406L457.386 238.051L521.869 168.406L586.351 238.051L650.839 168.406L715.321 238.051L779.809 168.406L844.291 238.051L908.779 168.406L973.261 238.051L1037.74 168.406L1102.24 238.051L1166.73 168.406" stroke="#FFF96F" stroke-width="15" stroke-miterlimit="10"/>
</svg>
