<svg width="1398" height="451" viewBox="0 0 1398 451" fill="none" xmlns="http://www.w3.org/2000/svg">
<g filter="url(#filter0_f_269_893)">
<path d="M897.096 416.586L1414.05 280.065L1436 25L1078.75 201.845L1122.65 85.244L337 416.586V471L928.129 312.131L897.096 416.586Z" stroke="#70E3FF" stroke-width="19.5197"/>
</g>
<g filter="url(#filter1_f_269_893)">
<path d="M897.096 416.586L1414.05 280.065L1436 25L1078.75 201.845L1122.65 85.244L337 416.586V471L928.129 312.131L897.096 416.586Z" stroke="white" stroke-width="4.87992"/>
</g>
<g filter="url(#filter2_f_269_893)">
<g filter="url(#filter3_f_269_893)">
<path d="M538 471.5C538 612.609 423.609 727 282.5 727C141.391 727 27 612.609 27 471.5C27 330.391 141.391 216 282.5 216C423.609 216 538 330.391 538 471.5Z" fill="#F341F3"/>
</g>
<g filter="url(#filter4_f_269_893)">
<path d="M348.95 516.424C348.95 594.473 285.678 657.745 207.629 657.745C129.58 657.745 66.3086 594.473 66.3086 516.424C66.3086 438.375 129.58 375.104 207.629 375.104C285.678 375.104 348.95 438.375 348.95 516.424Z" fill="#F37641"/>
</g>
<g filter="url(#filter5_f_269_893)">
<ellipse cx="231.027" cy="499.576" rx="93.5897" ry="94.5256" fill="#FFF96F"/>
</g>
</g>
<defs>
<filter id="filter0_f_269_893" x="319.626" y="0.94788" width="1135.2" height="490.393" filterUnits="userSpaceOnUse" color-interpolation-filters="sRGB">
<feFlood flood-opacity="0" result="BackgroundImageFix"/>
<feBlend mode="normal" in="SourceGraphic" in2="BackgroundImageFix" result="shape"/>
<feGaussianBlur stdDeviation="3.80633" result="effect1_foregroundBlur_269_893"/>
</filter>
<filter id="filter1_f_269_893" x="331.533" y="17.8651" width="1110.29" height="459.342" filterUnits="userSpaceOnUse" color-interpolation-filters="sRGB">
<feFlood flood-opacity="0" result="BackgroundImageFix"/>
<feBlend mode="normal" in="SourceGraphic" in2="BackgroundImageFix" result="shape"/>
<feGaussianBlur stdDeviation="1.51277" result="effect1_foregroundBlur_269_893"/>
</filter>
<filter id="filter2_f_269_893" x="-13.1" y="175.9" width="591.2" height="591.2" filterUnits="userSpaceOnUse" color-interpolation-filters="sRGB">
<feFlood flood-opacity="0" result="BackgroundImageFix"/>
<feBlend mode="normal" in="SourceGraphic" in2="BackgroundImageFix" result="shape"/>
<feGaussianBlur stdDeviation="20.05" result="effect1_foregroundBlur_269_893"/>
</filter>
<filter id="filter3_f_269_893" x="-6.6" y="182.4" width="578.2" height="578.2" filterUnits="userSpaceOnUse" color-interpolation-filters="sRGB">
<feFlood flood-opacity="0" result="BackgroundImageFix"/>
<feBlend mode="normal" in="SourceGraphic" in2="BackgroundImageFix" result="shape"/>
<feGaussianBlur stdDeviation="16.8" result="effect1_foregroundBlur_269_893"/>
</filter>
<filter id="filter4_f_269_893" x="30.6852" y="339.48" width="353.887" height="353.887" filterUnits="userSpaceOnUse" color-interpolation-filters="sRGB">
<feFlood flood-opacity="0" result="BackgroundImageFix"/>
<feBlend mode="normal" in="SourceGraphic" in2="BackgroundImageFix" result="shape"/>
<feGaussianBlur stdDeviation="17.8117" result="effect1_foregroundBlur_269_893"/>
</filter>
<filter id="filter5_f_269_893" x="114.138" y="381.751" width="233.78" height="235.651" filterUnits="userSpaceOnUse" color-interpolation-filters="sRGB">
<feFlood flood-opacity="0" result="BackgroundImageFix"/>
<feBlend mode="normal" in="SourceGraphic" in2="BackgroundImageFix" result="shape"/>
<feGaussianBlur stdDeviation="11.65" result="effect1_foregroundBlur_269_893"/>
</filter>
</defs>
</svg>
