<svg width="227" height="93" viewBox="0 0 227 93" fill="none" xmlns="http://www.w3.org/2000/svg">
<path fill-rule="evenodd" clip-rule="evenodd" d="M6.84679 91.5327C13.4142 91.3862 13.745 91.3319 14.9357 90.198C17.3757 87.8741 17.4358 87.3614 17.4358 68.8777C17.4358 49.9503 17.3555 49.3685 14.4901 47.567C13.2825 46.8077 12.1262 46.6781 6.53845 46.6767L0 46.6748V69.1799V91.685L6.84679 91.5327ZM3.21187 45.7286H6.42374V35.794V25.8594H8.71796H11.0121V35.794V45.7286H14.4534H17.8947V23.021V0.313293H14.4534H11.0121V9.30172V18.2902H8.71796H6.42374V9.30172V0.313293H3.21187H0V23.021V45.7286H3.21187ZM8.20997 52.8248C9.41536 52.8248 10.0867 53.0679 10.2748 53.5732C10.4281 53.9847 10.5533 60.9673 10.5533 69.0901C10.5533 79.9458 10.4074 84.0089 10.0027 84.4261C9.69984 84.7388 8.77072 84.9939 7.93791 84.9939H6.42374V68.9094V52.8248H8.20997ZM27.5303 91.6166H35.3306V88.3053V84.9939H30.9716H26.6126V78.3709V71.7478H30.0539H33.4952V68.4363V65.1247H30.0539H26.6126V58.9747V52.8248H30.7422H34.8717V49.7497V46.6748H27.3009H19.7301V69.1459V91.6166H27.5303ZM20.3605 41.4132C22.1844 46.6114 30.9826 47.9407 35.147 43.647C37.0076 41.7288 37.6188 39.4306 37.622 34.3407C37.6257 28.8251 36.886 26.9177 32.3439 20.7322C27.7836 14.5217 27.1967 13.4407 27.0338 10.948C26.7916 7.24055 26.9852 6.5035 28.2901 6.16619C30.1489 5.68507 30.7422 6.92358 30.7422 11.2844V14.9786H34.0036H37.265L37.1003 9.63525C36.9223 3.84954 36.462 2.51878 34.0825 0.911262C32.1848 -0.370771 25.3063 -0.278527 23.5774 1.05223C20.7349 3.24021 20.4183 4.15326 20.4183 10.1656C20.4183 15.3216 20.5032 15.8458 21.6948 18.0617C22.3973 19.3674 24.2061 22.0285 25.7152 23.9751C27.2243 25.9223 28.9724 28.5683 29.6006 29.855C31.5814 33.9149 30.9096 39.5786 28.448 39.5786C26.759 39.5786 26.1538 37.8032 26.1538 32.85V28.2248H22.9419H19.7301L19.7649 34.0199C19.7847 37.3022 20.043 40.5082 20.3605 41.4132ZM37.6532 88.4188C38.9311 90.9131 41.3698 92.0898 45.2616 92.0898C49.3256 92.0898 51.7432 90.9098 53.2555 88.1876C54.2682 86.364 54.3724 85.6481 54.3724 80.4997C54.3724 73.7678 54.3361 73.6765 48.4735 65.7288C43.8636 59.479 42.8656 56.7423 44.037 53.5651C44.5876 52.0721 46.5303 51.8914 47.2443 53.2666C47.5054 53.7699 47.7192 55.7923 47.7192 57.7608V61.3401H50.9806H54.242L54.0585 56.018C53.7662 47.523 52.3397 45.9647 45.1396 46.275C40.8687 46.4595 39.3605 47.2444 37.9441 50.0199C37.2577 51.3658 37.1435 52.5286 37.2751 56.8459C37.4632 63.0267 37.5339 63.1955 43.151 70.8825C46.7616 75.8243 47.2186 76.6792 47.5026 79.0223C47.677 80.4623 47.6357 82.4486 47.4108 83.4353C47.0662 84.947 46.7901 85.2556 45.6623 85.3897C43.5777 85.6366 43.1308 84.5487 43.1308 79.2266V74.5863H39.9189H36.7071L36.7273 80.618C36.7443 85.6835 36.8924 86.9327 37.6532 88.4188ZM39.7662 45.4131C39.9341 45.5867 43.4442 45.7286 47.5664 45.7286H55.0606V42.1805V38.6325H50.7016H46.3427V32.0094V25.3863H49.5545H52.7665V22.0748V18.7633H49.5545H46.3427V12.8498V6.93636H50.4722H54.6018V3.62483V0.313293H47.031H39.4601V22.7054C39.4601 35.0215 39.5977 45.2399 39.7662 45.4131ZM59.8784 91.6166H63.3197V69.1459V46.6748H59.8784H56.4371V69.1459V91.6166H59.8784ZM64.4219 45.7286H67.3594L67.6576 42.7719C68.2463 36.9427 68.1279 37.1475 70.8172 37.3084L73.1847 37.4497L73.5844 41.5892L73.9841 45.7286H77.1404C79.458 45.7286 80.2965 45.5616 80.2965 45.1004C80.2965 44.755 79.0592 34.6965 77.5464 22.7475C76.0337 10.799 74.7948 0.854967 74.7934 0.64965C74.792 0.444335 72.9842 0.337893 70.7758 0.413111L66.761 0.549831L66.2154 5.28059C65.9154 7.88251 64.7284 17.9728 63.5771 27.7035C62.4264 37.4342 61.4843 45.4703 61.4843 45.5621C61.4843 45.6539 62.8063 45.7286 64.4219 45.7286ZM66.5862 88.6731C68.6771 93.0279 73.4701 93.5258 76.7935 89.733C78.55 87.7284 78.6463 87.7432 79.1322 90.0795C79.4268 91.4965 79.5929 91.6166 81.2504 91.6166H83.0496V77.8978V64.1786H78.4614H73.873V67.7267V71.2747H75.4789H77.0848V76.9209C77.0848 80.0262 76.8903 83.0946 76.6522 83.7398C76.1318 85.1511 74.7104 85.709 73.4316 85.0038C72.5208 84.501 72.4964 84.0961 72.4964 69.4047C72.4964 61.1088 72.6218 53.9847 72.775 53.5732C73.1788 52.4879 75.5625 52.6057 76.1512 53.7397C76.4122 54.243 76.626 56.0525 76.626 57.7608V60.867H79.899H83.1725L82.9554 56.2129C82.5738 48.0429 80.7699 46.0418 74.0212 46.2963C69.6127 46.4628 68.2495 47.2344 66.6463 50.4689C65.6323 52.5153 65.6139 52.8531 65.6144 69.6009C65.6149 86.0127 65.6511 86.7253 66.5862 88.6731ZM69.7934 21.9499C70.1119 18.3683 70.5102 15.6007 70.6786 15.7999C70.8465 15.9986 71.2351 18.9288 71.5421 22.3113C71.8486 25.6939 72.2029 28.8337 72.329 29.2892C72.5208 29.9823 72.2496 30.1171 70.6611 30.1171C69.0745 30.1171 68.801 29.9818 68.9891 29.2892C69.113 28.8337 69.475 25.5311 69.7934 21.9499ZM84.8855 45.7286H88.0967V35.5575V25.3863H89.6109C92.1341 25.3863 92.2267 25.7232 92.2267 34.9117C92.2267 39.5261 92.4278 43.8477 92.6737 44.5151C93.0935 45.6529 93.3154 45.7286 96.2297 45.7291L99.3388 45.7296L99.2246 36.1493C99.0897 24.8948 98.9476 23.7576 97.4829 22.2479C96.3918 21.122 96.3886 21.095 97.2602 20.1967C98.7162 18.6951 99.2254 15.6651 99.0219 9.71803C98.7257 1.05839 97.8429 0.313293 87.882 0.313293H81.6735V23.021V45.7286H84.8855ZM88.5557 91.6166H91.7677L91.8044 79.4352L91.8419 67.2536L94.872 79.4352L97.902 91.6166H100.57H103.239V69.1459V46.6748H100.256H97.2738L97.2323 58.3834C97.1844 71.6986 97.5101 71.9238 93.8087 56.018L91.6352 46.6748H88.4894H85.3437V69.1459V91.6166H88.5557ZM89.6109 6.46328C91.9768 6.46328 92.2267 7.05037 92.2267 12.6133C92.2267 18.1762 91.9768 18.7633 89.6109 18.7633H88.0967V12.6133V6.46328H89.6109ZM102.775 6.93636H105.523L105.642 26.2142L105.762 45.4921L109.089 45.6312L112.415 45.7702V26.3533V6.93636H115.168H117.921V3.62483V0.313293H108.974H100.027V3.62483V6.93636H102.775ZM112.302 88.2715C113.553 90.8012 115.207 91.7812 118.605 92.0042C122.672 92.2709 124.546 91.8216 126.415 90.1305C128.398 88.3349 129.392 85.1182 129.392 80.4997C129.392 75.1814 128.567 73.1817 123.506 66.2403C119.009 60.0718 118.38 58.7159 118.38 55.1887C118.38 53.1743 119.217 52.2074 120.764 52.4335C121.759 52.5792 121.836 52.8423 122.051 56.8459L122.28 61.1036H125.492H128.704L128.662 56.1202C128.614 50.4182 128.116 48.9162 125.721 47.2453C124.281 46.24 123.706 46.1407 120.134 46.2817C115.68 46.4567 114.292 47.1525 112.645 50.0359C111.896 51.3459 111.73 52.4704 111.745 56.1363C111.768 61.6462 112.742 64.1398 117.149 69.9723C121.768 76.0835 122.047 76.6881 122.049 80.5792C122.051 84.8639 121.821 85.4671 120.183 85.4671C118.322 85.4671 117.921 84.3413 117.921 79.1117V74.5863H114.71H111.498L111.499 80.618C111.499 85.4251 111.662 86.9788 112.302 88.2715ZM127.213 45.633L130.08 45.4921L130.539 41.4709L130.998 37.4497L133.366 37.3084C136.055 37.1475 135.937 36.9427 136.525 42.7719L136.824 45.7286H140.049H143.275L143.016 43.9546C142.873 42.9786 141.566 32.7606 140.112 21.247L137.469 0.313293H133.529H129.589L126.951 22.6661C125.5 34.9604 124.32 45.1888 124.329 45.3965C124.338 45.6038 125.636 45.7101 127.213 45.633ZM132.26 88.2888C133.693 91.1698 135.564 92.0898 139.986 92.0898C144.005 92.0898 145.872 91.1484 147.492 88.3044C148.308 86.8718 148.455 85.681 148.59 79.4352L148.746 72.2209H145.493H142.24V77.929C142.24 84.3981 141.911 85.4671 139.918 85.4671C138.868 85.4671 138.442 85.1823 138.099 84.2533C137.846 83.5653 137.652 77.0287 137.652 69.1459C137.652 61.263 137.846 54.7265 138.099 54.0382C138.442 53.1091 138.868 52.8248 139.918 52.8248C141.846 52.8248 142.24 53.9019 142.24 59.1801V63.7055H145.496H148.754L148.594 57.4372C148.46 52.1866 148.283 50.9003 147.501 49.5132C146.149 47.1138 144.069 46.2031 139.938 46.2027C135.567 46.2017 133.688 47.1317 132.26 50.0033C131.246 52.0427 131.227 52.3773 131.227 69.1459C131.227 85.9147 131.246 86.2488 132.26 88.2888ZM132.65 21.2451C132.96 17.7968 133.289 15.0534 133.382 15.1495C133.616 15.3911 134.89 26.6967 134.894 28.5796C134.898 30.0286 134.804 30.1171 133.257 30.1171C131.713 30.1171 131.628 30.0386 131.85 28.8161C131.98 28.1009 132.34 24.6938 132.65 21.2451ZM144.704 45.5337C145.049 45.6704 146.443 45.7172 147.801 45.6373L150.27 45.4921L150.499 33.4991L150.729 21.5062L153.442 32.5529C154.935 38.6287 156.323 44.0785 156.528 44.6642C156.853 45.5933 157.222 45.7286 159.435 45.7286H161.97V23.021V0.313293H158.988H156.005L155.955 12.0219L155.904 23.7306L153.112 12.0219L150.32 0.313293H147.197H144.076V22.7991C144.076 41.3957 144.184 45.3284 144.704 45.5337ZM154.17 91.6166H157.382V81.6824V71.7478H159.676H161.97V81.6824V91.6166H165.411H168.852V69.1459V46.6748H165.411H161.97V55.6632V64.6517H159.676H157.382V55.6632V46.6748H154.17H150.958V69.1459V91.6166H154.17ZM171.032 45.6449C178.44 45.4405 179.714 44.9589 181.194 41.8078C182.12 39.8364 182.159 39.063 182.158 22.7532C182.158 4.04161 182.109 3.68822 179.259 1.52957C178.119 0.666208 177.18 0.531852 171.344 0.396552L164.723 0.243281V23.0313V45.8194L171.032 45.6449ZM172.179 87.823C173.871 91.2365 175.083 91.8536 180.094 91.8536C184.908 91.8536 186.172 91.271 187.894 88.2559C188.759 86.7426 188.82 85.6654 188.943 69.619C189.072 52.6843 189.066 52.5764 188.025 50.4873C186.312 47.0527 185.109 46.4383 180.094 46.4383C175.083 46.4383 173.871 47.0556 172.179 50.4689C171.166 52.512 171.147 52.8702 171.147 69.1459C171.147 85.4218 171.166 85.7798 172.179 87.823ZM172.736 6.46328C173.839 6.46328 174.472 6.74382 174.801 7.37821C175.1 7.95253 175.276 13.7534 175.276 22.9561C175.276 39.0824 175.272 39.1055 172.49 39.1055H171.147V22.7844V6.46328H172.736ZM178.018 54.0382C178.357 53.1204 178.79 52.8248 179.797 52.8248C182.353 52.8248 182.388 53.0438 182.388 69.1459C182.388 85.1774 182.314 85.6629 179.915 85.3733C177.744 85.1099 177.585 84.0023 177.577 69.0584C177.574 61.2138 177.763 54.728 178.018 54.0382ZM191.98 86.527C193.491 90.8299 195.424 92.0898 200.519 92.0898C204.797 92.0898 206.96 90.9345 208.428 87.8634C209.438 85.7477 209.46 85.3617 209.46 69.1459C209.46 52.7112 209.452 52.5712 208.379 50.3255C206.812 47.0442 204.743 46.0593 199.871 46.2745C195.563 46.4643 193.835 47.4062 192.424 50.3317C191.641 51.9572 191.556 53.5613 191.462 68.4363C191.381 81.1913 191.494 85.1437 191.98 86.527ZM198.769 53.3925C199.072 53.0802 199.903 52.8248 200.616 52.8248C201.585 52.8248 202.024 53.1308 202.359 54.0382C202.613 54.7265 202.807 61.263 202.807 69.1459C202.807 77.0287 202.613 83.5653 202.359 84.2533C202.024 85.1609 201.585 85.4671 200.616 85.4671C199.903 85.4671 199.072 85.2111 198.769 84.8993C197.981 84.0871 197.981 54.2047 198.769 53.3925ZM219.325 91.6166H226.666V88.0691V84.5207H222.537H218.407V65.5978V46.6748H215.195H211.983V69.1459V91.6166H219.325Z" fill="white"/>
</svg>
