<svg width="2418" height="467" viewBox="0 0 2418 467" fill="none" xmlns="http://www.w3.org/2000/svg">
<g filter="url(#filter0_d_264_864)">
<path fill-rule="evenodd" clip-rule="evenodd" d="M793.822 94.4359H841.336C841.15 78.8746 834.792 64.0129 823.638 53.0738C812.485 42.1346 797.436 36 781.755 36C766.074 36 751.025 42.1346 739.872 53.0738C728.718 64.0129 722.36 78.8746 722.174 94.4359H769.646C747.182 97.364 726.574 108.347 711.706 125.313C696.838 142.28 688.738 164.059 688.932 186.544H743.868L679.617 230.97L732.486 263.87L654.711 325.814L793.158 264.315L748.525 234.728C761.134 227.691 773.742 220.652 786.35 213.61L854.827 251.841L735.491 314.732C754.863 330.282 774.235 345.838 793.606 361.4L692.162 424.019L865.769 370.578L794.37 309.698C794.37 309.698 909.696 254.898 912.809 254.049C914.752 253.513 868.533 215.184 833.631 186.535H874.503C874.696 164.051 866.595 142.273 851.727 125.307C836.86 108.341 816.252 97.3574 793.789 94.4277L793.822 94.4359Z" fill="#F341F3"/>
</g>
<g filter="url(#filter1_d_264_864)">
<path fill-rule="evenodd" clip-rule="evenodd" d="M1990.96 101.436H2038.47C2038.28 85.8746 2031.92 71.0129 2020.77 60.0738C2009.62 49.1346 1994.57 43 1978.89 43C1963.21 43 1948.16 49.1346 1937 60.0738C1925.85 71.0129 1919.49 85.8746 1919.31 101.436H1966.78C1944.31 104.364 1923.71 115.347 1908.84 132.313C1893.97 149.28 1885.87 171.059 1886.07 193.544H1941L1876.75 237.97L1929.62 270.87L1851.84 332.814L1990.29 271.315L1945.66 241.728C1958.27 234.691 1970.87 227.652 1983.48 220.61L2051.96 258.841L1932.62 321.732C1952 337.282 1971.37 352.838 1990.74 368.4L1889.29 431.019L2062.9 377.578L1991.5 316.698C1991.5 316.698 2106.83 261.898 2109.94 261.049C2111.88 260.513 2065.67 222.184 2030.76 193.535H2071.64C2071.83 171.051 2063.73 149.273 2048.86 132.307C2033.99 115.341 2013.39 104.357 1990.92 101.428L1990.96 101.436Z" fill="#F341F3"/>
</g>
<g filter="url(#filter2_d_264_864)">
<path fill-rule="evenodd" clip-rule="evenodd" d="M578.706 236.638H374.598C374.598 125.828 420.31 36 476.652 36C532.994 36 578.706 125.828 578.706 236.638Z" fill="#70E3FF"/>
<path fill-rule="evenodd" clip-rule="evenodd" d="M421.657 226.986L358.473 286.618H390.065V348.982L449.302 226.986H421.657Z" fill="#70E3FF"/>
<path fill-rule="evenodd" clip-rule="evenodd" d="M540.313 225.406L605.13 286.575H572.725V350.556L511.957 225.406H540.313Z" fill="#70E3FF"/>
<path fill-rule="evenodd" clip-rule="evenodd" d="M465.821 233.885L393.211 412.598L445.511 331.416L496.716 421.315L480.05 329.497L566.017 379.733L477.757 215.365L465.821 233.885Z" fill="#70E3FF"/>
</g>
<g filter="url(#filter3_d_264_864)">
<path fill-rule="evenodd" clip-rule="evenodd" d="M1776.63 232.638H1572.52C1572.52 121.828 1618.24 32 1674.58 32C1730.92 32 1776.63 121.828 1776.63 232.638Z" fill="#70E3FF"/>
<path fill-rule="evenodd" clip-rule="evenodd" d="M1619.58 222.986L1556.4 282.618H1587.99V344.982L1647.23 222.986H1619.58Z" fill="#70E3FF"/>
<path fill-rule="evenodd" clip-rule="evenodd" d="M1738.24 221.406L1803.06 282.575H1770.65V346.556L1709.88 221.406H1738.24Z" fill="#70E3FF"/>
<path fill-rule="evenodd" clip-rule="evenodd" d="M1663.75 229.885L1591.14 408.598L1643.44 327.416L1694.64 417.315L1677.98 325.497L1763.94 375.733L1675.68 211.365L1663.75 229.885Z" fill="#70E3FF"/>
</g>
<g filter="url(#filter4_d_264_864)">
<path fill-rule="evenodd" clip-rule="evenodd" d="M1177.79 219.952H962.031C962.031 157.68 1010.36 107.199 1069.92 107.199C1129.48 107.199 1177.79 157.68 1177.79 219.952Z" fill="#70E3FF"/>
</g>
<g filter="url(#filter5_d_264_864)">
<path fill-rule="evenodd" clip-rule="evenodd" d="M1180.95 148.76H965.168C965.168 86.4879 1013.49 36 1073.06 36C1132.62 36 1180.95 86.4803 1180.95 148.76Z" fill="#70E3FF"/>
</g>
<g filter="url(#filter6_d_264_864)">
<path fill-rule="evenodd" clip-rule="evenodd" d="M1058.48 165.096L981.715 375.642L1037.01 279.995L1091.14 385.904L1073.52 277.742L1164.4 336.923L1071.09 143.285L1058.48 165.096Z" fill="#70E3FF"/>
</g>
<g filter="url(#filter7_d_264_864)">
<path fill-rule="evenodd" clip-rule="evenodd" d="M2375.76 229.952H2160C2160 167.68 2208.33 117.199 2267.89 117.199C2327.45 117.199 2375.76 167.68 2375.76 229.952Z" fill="#70E3FF"/>
</g>
<g filter="url(#filter8_d_264_864)">
<path fill-rule="evenodd" clip-rule="evenodd" d="M2378.92 158.76H2163.14C2163.14 96.4879 2211.46 46 2271.03 46C2330.59 46 2378.92 96.4803 2378.92 158.76Z" fill="#70E3FF"/>
</g>
<g filter="url(#filter9_d_264_864)">
<path fill-rule="evenodd" clip-rule="evenodd" d="M2256.45 175.096L2179.68 385.642L2234.97 289.995L2289.11 395.904L2271.49 287.742L2362.37 346.923L2269.06 153.285L2256.45 175.096Z" fill="#70E3FF"/>
</g>
<g filter="url(#filter10_d_264_864)">
<path d="M172.988 213.934C229.45 213.934 275.222 174.55 275.222 125.967C275.222 77.3842 229.45 38 172.988 38C116.526 38 70.7539 77.3842 70.7539 125.967C70.7539 174.55 116.526 213.934 172.988 213.934Z" fill="#F341F3"/>
<path fill-rule="evenodd" clip-rule="evenodd" d="M114.466 179.842L90.9531 277.307L141.895 225.405L157.888 339.939L185.624 239.247L234.635 302.526L213.361 201.146L114.466 179.842Z" fill="#F341F3"/>
<path fill-rule="evenodd" clip-rule="evenodd" d="M111.521 148.382L55.0883 319.659L118.592 270.528L160.446 389.828L200.855 294.978L291.775 363.377L231.162 179.66L245.593 165.785L309.096 389.828L206.629 312.237L159.001 421.57L115.708 294.978L32 356.323L104.161 123.564L111.521 148.382Z" fill="#F341F3"/>
</g>
<g filter="url(#filter11_d_264_864)">
<path d="M1371.05 213.934C1427.52 213.934 1473.29 174.55 1473.29 125.967C1473.29 77.3842 1427.52 38 1371.05 38C1314.59 38 1268.82 77.3842 1268.82 125.967C1268.82 174.55 1314.59 213.934 1371.05 213.934Z" fill="#F341F3"/>
<path fill-rule="evenodd" clip-rule="evenodd" d="M1312.53 179.842L1289.02 277.307L1339.96 225.405L1355.95 339.939L1383.69 239.247L1432.7 302.526L1411.43 201.146L1312.53 179.842Z" fill="#F341F3"/>
<path fill-rule="evenodd" clip-rule="evenodd" d="M1309.59 148.382L1253.15 319.659L1316.66 270.528L1358.51 389.828L1398.92 294.978L1489.84 363.377L1429.23 179.66L1443.66 165.785L1507.16 389.828L1404.7 312.237L1357.07 421.57L1313.77 294.978L1230.07 356.323L1302.23 123.564L1309.59 148.382Z" fill="#F341F3"/>
</g>
<defs>
<filter id="filter0_d_264_864" x="622.248" y="6.83265" width="323.082" height="452.946" filterUnits="userSpaceOnUse" color-interpolation-filters="sRGB">
<feFlood flood-opacity="0" result="BackgroundImageFix"/>
<feColorMatrix in="SourceAlpha" type="matrix" values="0 0 0 0 0 0 0 0 0 0 0 0 0 0 0 0 0 0 127 0" result="hardAlpha"/>
<feOffset dy="3.29575"/>
<feGaussianBlur stdDeviation="16.2316"/>
<feComposite in2="hardAlpha" operator="out"/>
<feColorMatrix type="matrix" values="0 0 0 0 0.952941 0 0 0 0 0.254902 0 0 0 0 0.952941 0 0 0 1 0"/>
<feBlend mode="normal" in2="BackgroundImageFix" result="effect1_dropShadow_264_864"/>
<feBlend mode="normal" in="SourceGraphic" in2="effect1_dropShadow_264_864" result="shape"/>
</filter>
<filter id="filter1_d_264_864" x="1819.38" y="13.8326" width="323.082" height="452.946" filterUnits="userSpaceOnUse" color-interpolation-filters="sRGB">
<feFlood flood-opacity="0" result="BackgroundImageFix"/>
<feColorMatrix in="SourceAlpha" type="matrix" values="0 0 0 0 0 0 0 0 0 0 0 0 0 0 0 0 0 0 127 0" result="hardAlpha"/>
<feOffset dy="3.29575"/>
<feGaussianBlur stdDeviation="16.2316"/>
<feComposite in2="hardAlpha" operator="out"/>
<feColorMatrix type="matrix" values="0 0 0 0 0.952941 0 0 0 0 0.254902 0 0 0 0 0.952941 0 0 0 1 0"/>
<feBlend mode="normal" in2="BackgroundImageFix" result="effect1_dropShadow_264_864"/>
<feBlend mode="normal" in="SourceGraphic" in2="effect1_dropShadow_264_864" result="shape"/>
</filter>
<filter id="filter2_d_264_864" x="327.91" y="8.54058" width="307.781" height="446.441" filterUnits="userSpaceOnUse" color-interpolation-filters="sRGB">
<feFlood flood-opacity="0" result="BackgroundImageFix"/>
<feColorMatrix in="SourceAlpha" type="matrix" values="0 0 0 0 0 0 0 0 0 0 0 0 0 0 0 0 0 0 127 0" result="hardAlpha"/>
<feOffset dy="3.10276"/>
<feGaussianBlur stdDeviation="15.2811"/>
<feComposite in2="hardAlpha" operator="out"/>
<feColorMatrix type="matrix" values="0 0 0 0 0.439216 0 0 0 0 0.890196 0 0 0 0 1 0 0 0 1 0"/>
<feBlend mode="normal" in2="BackgroundImageFix" result="effect1_dropShadow_264_864"/>
<feBlend mode="normal" in="SourceGraphic" in2="effect1_dropShadow_264_864" result="shape"/>
</filter>
<filter id="filter3_d_264_864" x="1525.84" y="4.54058" width="307.781" height="446.441" filterUnits="userSpaceOnUse" color-interpolation-filters="sRGB">
<feFlood flood-opacity="0" result="BackgroundImageFix"/>
<feColorMatrix in="SourceAlpha" type="matrix" values="0 0 0 0 0 0 0 0 0 0 0 0 0 0 0 0 0 0 127 0" result="hardAlpha"/>
<feOffset dy="3.10276"/>
<feGaussianBlur stdDeviation="15.2811"/>
<feComposite in2="hardAlpha" operator="out"/>
<feColorMatrix type="matrix" values="0 0 0 0 0.439216 0 0 0 0 0.890196 0 0 0 0 1 0 0 0 1 0"/>
<feBlend mode="normal" in2="BackgroundImageFix" result="effect1_dropShadow_264_864"/>
<feBlend mode="normal" in="SourceGraphic" in2="effect1_dropShadow_264_864" result="shape"/>
</filter>
<filter id="filter4_d_264_864" x="923.054" y="71.267" width="293.712" height="190.707" filterUnits="userSpaceOnUse" color-interpolation-filters="sRGB">
<feFlood flood-opacity="0" result="BackgroundImageFix"/>
<feColorMatrix in="SourceAlpha" type="matrix" values="0 0 0 0 0 0 0 0 0 0 0 0 0 0 0 0 0 0 127 0" result="hardAlpha"/>
<feOffset dy="3.0451"/>
<feGaussianBlur stdDeviation="19.4887"/>
<feComposite in2="hardAlpha" operator="out"/>
<feColorMatrix type="matrix" values="0 0 0 0 0.439216 0 0 0 0 0.890196 0 0 0 0 1 0 0 0 1 0"/>
<feBlend mode="normal" in2="BackgroundImageFix" result="effect1_dropShadow_264_864"/>
<feBlend mode="normal" in="SourceGraphic" in2="effect1_dropShadow_264_864" result="shape"/>
</filter>
<filter id="filter5_d_264_864" x="926.191" y="0.0677712" width="293.736" height="190.714" filterUnits="userSpaceOnUse" color-interpolation-filters="sRGB">
<feFlood flood-opacity="0" result="BackgroundImageFix"/>
<feColorMatrix in="SourceAlpha" type="matrix" values="0 0 0 0 0 0 0 0 0 0 0 0 0 0 0 0 0 0 127 0" result="hardAlpha"/>
<feOffset dy="3.0451"/>
<feGaussianBlur stdDeviation="19.4887"/>
<feComposite in2="hardAlpha" operator="out"/>
<feColorMatrix type="matrix" values="0 0 0 0 0.439216 0 0 0 0 0.890196 0 0 0 0 1 0 0 0 1 0"/>
<feBlend mode="normal" in2="BackgroundImageFix" result="effect1_dropShadow_264_864"/>
<feBlend mode="normal" in="SourceGraphic" in2="effect1_dropShadow_264_864" result="shape"/>
</filter>
<filter id="filter6_d_264_864" x="942.738" y="107.353" width="260.642" height="320.574" filterUnits="userSpaceOnUse" color-interpolation-filters="sRGB">
<feFlood flood-opacity="0" result="BackgroundImageFix"/>
<feColorMatrix in="SourceAlpha" type="matrix" values="0 0 0 0 0 0 0 0 0 0 0 0 0 0 0 0 0 0 127 0" result="hardAlpha"/>
<feOffset dy="3.0451"/>
<feGaussianBlur stdDeviation="19.4887"/>
<feComposite in2="hardAlpha" operator="out"/>
<feColorMatrix type="matrix" values="0 0 0 0 0.439216 0 0 0 0 0.890196 0 0 0 0 1 0 0 0 1 0"/>
<feBlend mode="normal" in2="BackgroundImageFix" result="effect1_dropShadow_264_864"/>
<feBlend mode="normal" in="SourceGraphic" in2="effect1_dropShadow_264_864" result="shape"/>
</filter>
<filter id="filter7_d_264_864" x="2121.02" y="81.267" width="293.712" height="190.707" filterUnits="userSpaceOnUse" color-interpolation-filters="sRGB">
<feFlood flood-opacity="0" result="BackgroundImageFix"/>
<feColorMatrix in="SourceAlpha" type="matrix" values="0 0 0 0 0 0 0 0 0 0 0 0 0 0 0 0 0 0 127 0" result="hardAlpha"/>
<feOffset dy="3.0451"/>
<feGaussianBlur stdDeviation="19.4887"/>
<feComposite in2="hardAlpha" operator="out"/>
<feColorMatrix type="matrix" values="0 0 0 0 0.439216 0 0 0 0 0.890196 0 0 0 0 1 0 0 0 1 0"/>
<feBlend mode="normal" in2="BackgroundImageFix" result="effect1_dropShadow_264_864"/>
<feBlend mode="normal" in="SourceGraphic" in2="effect1_dropShadow_264_864" result="shape"/>
</filter>
<filter id="filter8_d_264_864" x="2124.16" y="10.0678" width="293.736" height="190.714" filterUnits="userSpaceOnUse" color-interpolation-filters="sRGB">
<feFlood flood-opacity="0" result="BackgroundImageFix"/>
<feColorMatrix in="SourceAlpha" type="matrix" values="0 0 0 0 0 0 0 0 0 0 0 0 0 0 0 0 0 0 127 0" result="hardAlpha"/>
<feOffset dy="3.0451"/>
<feGaussianBlur stdDeviation="19.4887"/>
<feComposite in2="hardAlpha" operator="out"/>
<feColorMatrix type="matrix" values="0 0 0 0 0.439216 0 0 0 0 0.890196 0 0 0 0 1 0 0 0 1 0"/>
<feBlend mode="normal" in2="BackgroundImageFix" result="effect1_dropShadow_264_864"/>
<feBlend mode="normal" in="SourceGraphic" in2="effect1_dropShadow_264_864" result="shape"/>
</filter>
<filter id="filter9_d_264_864" x="2140.71" y="117.353" width="260.642" height="320.574" filterUnits="userSpaceOnUse" color-interpolation-filters="sRGB">
<feFlood flood-opacity="0" result="BackgroundImageFix"/>
<feColorMatrix in="SourceAlpha" type="matrix" values="0 0 0 0 0 0 0 0 0 0 0 0 0 0 0 0 0 0 127 0" result="hardAlpha"/>
<feOffset dy="3.0451"/>
<feGaussianBlur stdDeviation="19.4887"/>
<feComposite in2="hardAlpha" operator="out"/>
<feColorMatrix type="matrix" values="0 0 0 0 0.439216 0 0 0 0 0.890196 0 0 0 0 1 0 0 0 1 0"/>
<feBlend mode="normal" in2="BackgroundImageFix" result="effect1_dropShadow_264_864"/>
<feBlend mode="normal" in="SourceGraphic" in2="effect1_dropShadow_264_864" result="shape"/>
</filter>
<filter id="filter10_d_264_864" x="0.119156" y="9.22191" width="340.859" height="447.332" filterUnits="userSpaceOnUse" color-interpolation-filters="sRGB">
<feFlood flood-opacity="0" result="BackgroundImageFix"/>
<feColorMatrix in="SourceAlpha" type="matrix" values="0 0 0 0 0 0 0 0 0 0 0 0 0 0 0 0 0 0 127 0" result="hardAlpha"/>
<feOffset dy="3.10276"/>
<feGaussianBlur stdDeviation="15.9404"/>
<feComposite in2="hardAlpha" operator="out"/>
<feColorMatrix type="matrix" values="0 0 0 0 0.952941 0 0 0 0 0.254902 0 0 0 0 0.952941 0 0 0 1 0"/>
<feBlend mode="normal" in2="BackgroundImageFix" result="effect1_dropShadow_264_864"/>
<feBlend mode="normal" in="SourceGraphic" in2="effect1_dropShadow_264_864" result="shape"/>
</filter>
<filter id="filter11_d_264_864" x="1198.19" y="9.22191" width="340.859" height="447.332" filterUnits="userSpaceOnUse" color-interpolation-filters="sRGB">
<feFlood flood-opacity="0" result="BackgroundImageFix"/>
<feColorMatrix in="SourceAlpha" type="matrix" values="0 0 0 0 0 0 0 0 0 0 0 0 0 0 0 0 0 0 127 0" result="hardAlpha"/>
<feOffset dy="3.10276"/>
<feGaussianBlur stdDeviation="15.9404"/>
<feComposite in2="hardAlpha" operator="out"/>
<feColorMatrix type="matrix" values="0 0 0 0 0.952941 0 0 0 0 0.254902 0 0 0 0 0.952941 0 0 0 1 0"/>
<feBlend mode="normal" in2="BackgroundImageFix" result="effect1_dropShadow_264_864"/>
<feBlend mode="normal" in="SourceGraphic" in2="effect1_dropShadow_264_864" result="shape"/>
</filter>
</defs>
</svg>
