<svg width="1502" height="460" viewBox="0 0 1502 460" fill="none" xmlns="http://www.w3.org/2000/svg">
<g filter="url(#filter0_d_264_864)">
<path fill-rule="evenodd" clip-rule="evenodd" d="M774.63 94.4359H820.947C820.766 78.8746 814.568 64.0129 803.695 53.0738C792.823 42.1346 778.153 36 762.867 36C747.581 36 732.911 42.1346 722.039 53.0738C711.166 64.0129 704.968 78.8746 704.787 94.4359H751.063C729.165 97.364 709.076 108.347 694.582 125.313C680.089 142.28 672.193 164.059 672.383 186.544H725.934L663.303 230.97L714.839 263.87L639.023 325.814L773.983 264.315L730.475 234.728C742.765 227.691 755.056 220.652 767.347 213.61L834.098 251.841L717.769 314.732C736.652 330.282 755.536 345.838 774.42 361.4L675.531 424.019L844.765 370.578L775.165 309.698C775.165 309.698 887.585 254.898 890.62 254.049C892.513 253.513 847.46 215.184 813.437 186.535H853.279C853.467 164.051 845.57 142.273 831.077 125.307C816.584 108.341 796.495 97.3574 774.598 94.4277L774.63 94.4359Z" fill="#F341F3"/>
</g>
<g filter="url(#filter1_d_264_864)">
<path fill-rule="evenodd" clip-rule="evenodd" d="M564.932 236.638H365.965C365.965 125.828 410.526 36 465.448 36C520.371 36 564.932 125.828 564.932 236.638Z" fill="#70E3FF"/>
<path fill-rule="evenodd" clip-rule="evenodd" d="M411.839 226.986L350.246 286.618H381.042V348.982L438.787 226.986H411.839Z" fill="#70E3FF"/>
<path fill-rule="evenodd" clip-rule="evenodd" d="M527.505 225.406L590.689 286.575H559.101V350.556L499.863 225.406H527.505Z" fill="#70E3FF"/>
<path fill-rule="evenodd" clip-rule="evenodd" d="M454.89 233.885L384.109 412.598L435.092 331.416L485.007 421.315L468.76 329.497L552.563 379.733L466.525 215.365L454.89 233.885Z" fill="#70E3FF"/>
</g>
<g filter="url(#filter2_d_264_864)">
<path fill-rule="evenodd" clip-rule="evenodd" d="M1148.93 219.952H938.605C938.605 157.68 985.714 107.199 1043.78 107.199C1101.84 107.199 1148.93 157.68 1148.93 219.952Z" fill="#70E3FF"/>
</g>
<g filter="url(#filter3_d_264_864)">
<path fill-rule="evenodd" clip-rule="evenodd" d="M1152.01 148.76H941.664C941.664 86.4879 988.773 36 1046.84 36C1104.9 36 1152.01 86.4803 1152.01 148.76Z" fill="#70E3FF"/>
</g>
<g filter="url(#filter4_d_264_864)">
<path fill-rule="evenodd" clip-rule="evenodd" d="M1032.63 165.096L957.793 375.642L1011.69 279.995L1064.46 385.904L1047.28 277.742L1135.88 336.923L1044.91 143.285L1032.63 165.096Z" fill="#70E3FF"/>
</g>
<g filter="url(#filter5_d_264_864)">
<path d="M169.436 213.934C224.476 213.934 269.095 174.55 269.095 125.967C269.095 77.3842 224.476 38 169.436 38C114.396 38 69.7773 77.3842 69.7773 125.967C69.7773 174.55 114.396 213.934 169.436 213.934Z" fill="#F341F3"/>
<path fill-rule="evenodd" clip-rule="evenodd" d="M112.389 179.842L89.4688 277.307L139.127 225.405L154.717 339.939L181.755 239.247L229.532 302.526L208.793 201.146L112.389 179.842Z" fill="#F341F3"/>
<path fill-rule="evenodd" clip-rule="evenodd" d="M109.518 148.382L54.5067 319.659L116.411 270.528L157.21 389.828L196.601 294.978L285.232 363.377L226.145 179.66L240.212 165.785L302.116 389.828L202.23 312.237L155.802 421.57L113.599 294.978L32 356.323L102.343 123.564L109.518 148.382Z" fill="#F341F3"/>
</g>
<g filter="url(#filter6_d_264_864)">
<path d="M1337.32 213.934C1392.36 213.934 1436.98 174.55 1436.98 125.967C1436.98 77.3842 1392.36 38 1337.32 38C1282.28 38 1237.66 77.3842 1237.66 125.967C1237.66 174.55 1282.28 213.934 1337.32 213.934Z" fill="#F341F3"/>
<path fill-rule="evenodd" clip-rule="evenodd" d="M1280.28 179.842L1257.36 277.307L1307.01 225.405L1322.6 339.939L1349.64 239.247L1397.42 302.526L1376.68 201.146L1280.28 179.842Z" fill="#F341F3"/>
<path fill-rule="evenodd" clip-rule="evenodd" d="M1277.4 148.382L1222.39 319.659L1284.3 270.528L1325.1 389.828L1364.49 294.978L1453.12 363.377L1394.03 179.66L1408.1 165.785L1470 389.828L1370.12 312.237L1323.69 421.57L1281.49 294.978L1199.89 356.323L1270.23 123.564L1277.4 148.382Z" fill="#F341F3"/>
</g>
<defs>
<filter id="filter0_d_264_864" x="606.56" y="6.83265" width="316.579" height="452.946" filterUnits="userSpaceOnUse" color-interpolation-filters="sRGB">
<feFlood flood-opacity="0" result="BackgroundImageFix"/>
<feColorMatrix in="SourceAlpha" type="matrix" values="0 0 0 0 0 0 0 0 0 0 0 0 0 0 0 0 0 0 127 0" result="hardAlpha"/>
<feOffset dy="3.29575"/>
<feGaussianBlur stdDeviation="16.2316"/>
<feComposite in2="hardAlpha" operator="out"/>
<feColorMatrix type="matrix" values="0 0 0 0 0.952941 0 0 0 0 0.254902 0 0 0 0 0.952941 0 0 0 1 0"/>
<feBlend mode="normal" in2="BackgroundImageFix" result="effect1_dropShadow_264_864"/>
<feBlend mode="normal" in="SourceGraphic" in2="effect1_dropShadow_264_864" result="shape"/>
</filter>
<filter id="filter1_d_264_864" x="319.684" y="8.54058" width="301.566" height="446.441" filterUnits="userSpaceOnUse" color-interpolation-filters="sRGB">
<feFlood flood-opacity="0" result="BackgroundImageFix"/>
<feColorMatrix in="SourceAlpha" type="matrix" values="0 0 0 0 0 0 0 0 0 0 0 0 0 0 0 0 0 0 127 0" result="hardAlpha"/>
<feOffset dy="3.10276"/>
<feGaussianBlur stdDeviation="15.2811"/>
<feComposite in2="hardAlpha" operator="out"/>
<feColorMatrix type="matrix" values="0 0 0 0 0.439216 0 0 0 0 0.890196 0 0 0 0 1 0 0 0 1 0"/>
<feBlend mode="normal" in2="BackgroundImageFix" result="effect1_dropShadow_264_864"/>
<feBlend mode="normal" in="SourceGraphic" in2="effect1_dropShadow_264_864" result="shape"/>
</filter>
<filter id="filter2_d_264_864" x="899.628" y="71.267" width="288.275" height="190.707" filterUnits="userSpaceOnUse" color-interpolation-filters="sRGB">
<feFlood flood-opacity="0" result="BackgroundImageFix"/>
<feColorMatrix in="SourceAlpha" type="matrix" values="0 0 0 0 0 0 0 0 0 0 0 0 0 0 0 0 0 0 127 0" result="hardAlpha"/>
<feOffset dy="3.0451"/>
<feGaussianBlur stdDeviation="19.4887"/>
<feComposite in2="hardAlpha" operator="out"/>
<feColorMatrix type="matrix" values="0 0 0 0 0.439216 0 0 0 0 0.890196 0 0 0 0 1 0 0 0 1 0"/>
<feBlend mode="normal" in2="BackgroundImageFix" result="effect1_dropShadow_264_864"/>
<feBlend mode="normal" in="SourceGraphic" in2="effect1_dropShadow_264_864" result="shape"/>
</filter>
<filter id="filter3_d_264_864" x="902.687" y="0.0677712" width="288.298" height="190.714" filterUnits="userSpaceOnUse" color-interpolation-filters="sRGB">
<feFlood flood-opacity="0" result="BackgroundImageFix"/>
<feColorMatrix in="SourceAlpha" type="matrix" values="0 0 0 0 0 0 0 0 0 0 0 0 0 0 0 0 0 0 127 0" result="hardAlpha"/>
<feOffset dy="3.0451"/>
<feGaussianBlur stdDeviation="19.4887"/>
<feComposite in2="hardAlpha" operator="out"/>
<feColorMatrix type="matrix" values="0 0 0 0 0.439216 0 0 0 0 0.890196 0 0 0 0 1 0 0 0 1 0"/>
<feBlend mode="normal" in2="BackgroundImageFix" result="effect1_dropShadow_264_864"/>
<feBlend mode="normal" in="SourceGraphic" in2="effect1_dropShadow_264_864" result="shape"/>
</filter>
<filter id="filter4_d_264_864" x="918.816" y="107.353" width="256.041" height="320.574" filterUnits="userSpaceOnUse" color-interpolation-filters="sRGB">
<feFlood flood-opacity="0" result="BackgroundImageFix"/>
<feColorMatrix in="SourceAlpha" type="matrix" values="0 0 0 0 0 0 0 0 0 0 0 0 0 0 0 0 0 0 127 0" result="hardAlpha"/>
<feOffset dy="3.0451"/>
<feGaussianBlur stdDeviation="19.4887"/>
<feComposite in2="hardAlpha" operator="out"/>
<feColorMatrix type="matrix" values="0 0 0 0 0.439216 0 0 0 0 0.890196 0 0 0 0 1 0 0 0 1 0"/>
<feBlend mode="normal" in2="BackgroundImageFix" result="effect1_dropShadow_264_864"/>
<feBlend mode="normal" in="SourceGraphic" in2="effect1_dropShadow_264_864" result="shape"/>
</filter>
<filter id="filter5_d_264_864" x="0.119156" y="9.22191" width="333.879" height="447.332" filterUnits="userSpaceOnUse" color-interpolation-filters="sRGB">
<feFlood flood-opacity="0" result="BackgroundImageFix"/>
<feColorMatrix in="SourceAlpha" type="matrix" values="0 0 0 0 0 0 0 0 0 0 0 0 0 0 0 0 0 0 127 0" result="hardAlpha"/>
<feOffset dy="3.10276"/>
<feGaussianBlur stdDeviation="15.9404"/>
<feComposite in2="hardAlpha" operator="out"/>
<feColorMatrix type="matrix" values="0 0 0 0 0.952941 0 0 0 0 0.254902 0 0 0 0 0.952941 0 0 0 1 0"/>
<feBlend mode="normal" in2="BackgroundImageFix" result="effect1_dropShadow_264_864"/>
<feBlend mode="normal" in="SourceGraphic" in2="effect1_dropShadow_264_864" result="shape"/>
</filter>
<filter id="filter6_d_264_864" x="1168.01" y="9.22191" width="333.879" height="447.332" filterUnits="userSpaceOnUse" color-interpolation-filters="sRGB">
<feFlood flood-opacity="0" result="BackgroundImageFix"/>
<feColorMatrix in="SourceAlpha" type="matrix" values="0 0 0 0 0 0 0 0 0 0 0 0 0 0 0 0 0 0 127 0" result="hardAlpha"/>
<feOffset dy="3.10276"/>
<feGaussianBlur stdDeviation="15.9404"/>
<feComposite in2="hardAlpha" operator="out"/>
<feColorMatrix type="matrix" values="0 0 0 0 0.952941 0 0 0 0 0.254902 0 0 0 0 0.952941 0 0 0 1 0"/>
<feBlend mode="normal" in2="BackgroundImageFix" result="effect1_dropShadow_264_864"/>
<feBlend mode="normal" in="SourceGraphic" in2="effect1_dropShadow_264_864" result="shape"/>
</filter>
</defs>
</svg>
