<svg width="547" height="189" viewBox="0 0 547 189" fill="none" xmlns="http://www.w3.org/2000/svg">
<path d="M93.5 81.78L83.48 85.56V78.42L101.12 71.52V114H93.5V81.78Z" fill="white"/>
<g filter="url(#filter0_f_244_159)">
<circle cx="94.5" cy="94.5" r="67" stroke="white" stroke-width="15"/>
</g>
<circle cx="94.5" cy="94.5" r="67" stroke="white" stroke-width="15"/>
<g filter="url(#filter1_f_244_159)">
<circle cx="273.5" cy="94.5" r="67" stroke="white" stroke-width="15"/>
</g>
<path d="M249.12 106.8C249.6 106.44 250.7 105.86 252.42 105.06C254.18 104.26 256.14 103.38 258.3 102.42C264.06 99.82 268.96 97.54 273 95.58C277.08 93.58 280.68 91.52 283.8 89.4C286.96 87.28 288.54 85.48 288.54 84C288.54 82.88 287.78 81.88 286.26 81C284.78 80.12 282.82 79.44 280.38 78.96C277.94 78.48 275.38 78.24 272.7 78.24C268.86 78.24 265.46 78.72 262.5 79.68C259.58 80.64 257.74 82.08 256.98 84H249.18C249.1 81.36 250.18 79.08 252.42 77.16C254.7 75.24 257.68 73.8 261.36 72.84C265.04 71.88 268.98 71.4 273.18 71.4C277.34 71.4 281.26 71.88 284.94 72.84C288.62 73.8 291.58 75.24 293.82 77.16C296.1 79.04 297.24 81.32 297.24 84C297.24 86.88 295.68 89.68 292.56 92.4C289.44 95.08 285.74 97.52 281.46 99.72C277.18 101.88 272.02 104.24 265.98 106.8H297.24V114H249.12V106.8Z" fill="white"/>
<circle cx="273.5" cy="94.5" r="67" stroke="white" stroke-width="15"/>
<g filter="url(#filter2_f_244_159)">
<circle cx="452.5" cy="94.5" r="67" stroke="white" stroke-width="15"/>
</g>
<circle cx="452.5" cy="94.5" r="67" stroke="white" stroke-width="15"/>
<path d="M451.28 115.96C447.08 115.96 443.14 115.3 439.46 113.98C435.82 112.66 432.92 110.92 430.76 108.76C428.64 106.6 427.6 104.38 427.64 102.1H435.44C435.44 103.5 436.24 104.72 437.84 105.76C439.48 106.8 441.58 107.6 444.14 108.16C446.74 108.68 449.48 108.94 452.36 108.94C456.68 108.94 460.34 108.36 463.34 107.2C466.38 106 467.9 104.3 467.9 102.1C467.9 100.38 467.04 99.14 465.32 98.38C463.6 97.58 461.2 97.08 458.12 96.88C455.08 96.68 450.32 96.56 443.84 96.52H440.84V89.44C447.76 89.44 452.98 89.36 456.5 89.2C460.06 89 462.74 88.6 464.54 88C466.34 87.36 467.24 86.36 467.24 85C467.24 83.8 466.5 82.76 465.02 81.88C463.54 80.96 461.6 80.28 459.2 79.84C456.8 79.36 454.26 79.12 451.58 79.12C447.62 79.12 444.1 79.62 441.02 80.62C437.94 81.62 436.08 83.08 435.44 85H427.64C427.6 82.88 428.64 80.82 430.76 78.82C432.92 76.82 435.82 75.2 439.46 73.96C443.14 72.68 447.08 72.04 451.28 72.04C456 72.04 460.12 72.62 463.64 73.78C467.2 74.9 469.92 76.42 471.8 78.34C473.72 80.26 474.68 82.34 474.68 84.58C474.68 87.54 473.1 90.3 469.94 92.86C471.82 93.7 473.28 94.88 474.32 96.4C475.36 97.88 475.88 99.54 475.88 101.38C475.88 103.78 474.98 106.1 473.18 108.34C471.38 110.54 468.62 112.36 464.9 113.8C461.22 115.24 456.68 115.96 451.28 115.96Z" fill="white"/>
<defs>
<filter id="filter0_f_244_159" x="0.700001" y="0.700001" width="187.6" height="187.6" filterUnits="userSpaceOnUse" color-interpolation-filters="sRGB">
<feFlood flood-opacity="0" result="BackgroundImageFix"/>
<feBlend mode="normal" in="SourceGraphic" in2="BackgroundImageFix" result="shape"/>
<feGaussianBlur stdDeviation="9.65" result="effect1_foregroundBlur_244_159"/>
</filter>
<filter id="filter1_f_244_159" x="179.7" y="0.700001" width="187.6" height="187.6" filterUnits="userSpaceOnUse" color-interpolation-filters="sRGB">
<feFlood flood-opacity="0" result="BackgroundImageFix"/>
<feBlend mode="normal" in="SourceGraphic" in2="BackgroundImageFix" result="shape"/>
<feGaussianBlur stdDeviation="9.65" result="effect1_foregroundBlur_244_159"/>
</filter>
<filter id="filter2_f_244_159" x="358.7" y="0.700001" width="187.6" height="187.6" filterUnits="userSpaceOnUse" color-interpolation-filters="sRGB">
<feFlood flood-opacity="0" result="BackgroundImageFix"/>
<feBlend mode="normal" in="SourceGraphic" in2="BackgroundImageFix" result="shape"/>
<feGaussianBlur stdDeviation="9.65" result="effect1_foregroundBlur_244_159"/>
</filter>
</defs>
</svg>
