<svg width="578" height="189" viewBox="0 0 578 189" fill="none" xmlns="http://www.w3.org/2000/svg">
<path d="M93.5 81.78L83.48 85.56V78.42L101.12 71.52V114H93.5V81.78Z" fill="white"/>
<g filter="url(#filter0_f_244_159)">
<circle cx="94.5" cy="94.5" r="67" stroke="white" stroke-width="15"/>
</g>
<circle cx="94.5" cy="94.5" r="67" stroke="white" stroke-width="15"/>
<g filter="url(#filter1_f_244_159)">
<circle cx="288.5" cy="94.5" r="67" stroke="white" stroke-width="15"/>
</g>
<path d="M264.12 106.8C264.6 106.44 265.7 105.86 267.42 105.06C269.18 104.26 271.14 103.38 273.3 102.42C279.06 99.82 283.96 97.54 288 95.58C292.08 93.58 295.68 91.52 298.8 89.4C301.96 87.28 303.54 85.48 303.54 84C303.54 82.88 302.78 81.88 301.26 81C299.78 80.12 297.82 79.44 295.38 78.96C292.94 78.48 290.38 78.24 287.7 78.24C283.86 78.24 280.46 78.72 277.5 79.68C274.58 80.64 272.74 82.08 271.98 84H264.18C264.1 81.36 265.18 79.08 267.42 77.16C269.7 75.24 272.68 73.8 276.36 72.84C280.04 71.88 283.98 71.4 288.18 71.4C292.34 71.4 296.26 71.88 299.94 72.84C303.62 73.8 306.58 75.24 308.82 77.16C311.1 79.04 312.24 81.32 312.24 84C312.24 86.88 310.68 89.68 307.56 92.4C304.44 95.08 300.74 97.52 296.46 99.72C292.18 101.88 287.02 104.24 280.98 106.8H312.24V114H264.12V106.8Z" fill="white"/>
<circle cx="288.5" cy="94.5" r="67" stroke="white" stroke-width="15"/>
<g filter="url(#filter2_f_244_159)">
<circle cx="483.5" cy="94.5" r="67" stroke="white" stroke-width="15"/>
</g>
<circle cx="483.5" cy="94.5" r="67" stroke="white" stroke-width="15"/>
<path d="M482.28 115.96C478.08 115.96 474.14 115.3 470.46 113.98C466.82 112.66 463.92 110.92 461.76 108.76C459.64 106.6 458.6 104.38 458.64 102.1H466.44C466.44 103.5 467.24 104.72 468.84 105.76C470.48 106.8 472.58 107.6 475.14 108.16C477.74 108.68 480.48 108.94 483.36 108.94C487.68 108.94 491.34 108.36 494.34 107.2C497.38 106 498.9 104.3 498.9 102.1C498.9 100.38 498.04 99.14 496.32 98.38C494.6 97.58 492.2 97.08 489.12 96.88C486.08 96.68 481.32 96.56 474.84 96.52H471.84V89.44C478.76 89.44 483.98 89.36 487.5 89.2C491.06 89 493.74 88.6 495.54 88C497.34 87.36 498.24 86.36 498.24 85C498.24 83.8 497.5 82.76 496.02 81.88C494.54 80.96 492.6 80.28 490.2 79.84C487.8 79.36 485.26 79.12 482.58 79.12C478.62 79.12 475.1 79.62 472.02 80.62C468.94 81.62 467.08 83.08 466.44 85H458.64C458.6 82.88 459.64 80.82 461.76 78.82C463.92 76.82 466.82 75.2 470.46 73.96C474.14 72.68 478.08 72.04 482.28 72.04C487 72.04 491.12 72.62 494.64 73.78C498.2 74.9 500.92 76.42 502.8 78.34C504.72 80.26 505.68 82.34 505.68 84.58C505.68 87.54 504.1 90.3 500.94 92.86C502.82 93.7 504.28 94.88 505.32 96.4C506.36 97.88 506.88 99.54 506.88 101.38C506.88 103.78 505.98 106.1 504.18 108.34C502.38 110.54 499.62 112.36 495.9 113.8C492.22 115.24 487.68 115.96 482.28 115.96Z" fill="white"/>
<defs>
<filter id="filter0_f_244_159" x="0.700001" y="0.700001" width="187.6" height="187.6" filterUnits="userSpaceOnUse" color-interpolation-filters="sRGB">
<feFlood flood-opacity="0" result="BackgroundImageFix"/>
<feBlend mode="normal" in="SourceGraphic" in2="BackgroundImageFix" result="shape"/>
<feGaussianBlur stdDeviation="9.65" result="effect1_foregroundBlur_244_159"/>
</filter>
<filter id="filter1_f_244_159" x="194.7" y="0.700001" width="187.6" height="187.6" filterUnits="userSpaceOnUse" color-interpolation-filters="sRGB">
<feFlood flood-opacity="0" result="BackgroundImageFix"/>
<feBlend mode="normal" in="SourceGraphic" in2="BackgroundImageFix" result="shape"/>
<feGaussianBlur stdDeviation="9.65" result="effect1_foregroundBlur_244_159"/>
</filter>
<filter id="filter2_f_244_159" x="389.7" y="0.700001" width="187.6" height="187.6" filterUnits="userSpaceOnUse" color-interpolation-filters="sRGB">
<feFlood flood-opacity="0" result="BackgroundImageFix"/>
<feBlend mode="normal" in="SourceGraphic" in2="BackgroundImageFix" result="shape"/>
<feGaussianBlur stdDeviation="9.65" result="effect1_foregroundBlur_244_159"/>
</filter>
</defs>
</svg>
