<svg width="815" height="387" viewBox="0 0 815 387" fill="none" xmlns="http://www.w3.org/2000/svg">
<g style="mix-blend-mode:plus-lighter">
<path d="M753.784 276.016L889.93 349.486L879.502 375.914L775.22 313.544L794.918 512.812L681.946 447.799L775.22 599.496L698.167 617.467L615.901 375.914L753.784 447.799V276.016Z" fill="#F341F3"/>
</g>
<g style="mix-blend-mode:plus-lighter">
<path d="M617.639 -56.9777L857.487 69.8774L889.93 152.333L641.392 -7.82135V152.333L438.043 69.8774V252.232L-87.9999 31.8209L-63.6675 -139.434L369.68 132.248L357.514 -23.1497L617.639 84.1486V-56.9777Z" fill="#F341F3"/>
</g>
<g style="mix-blend-mode:plus-lighter">
<path d="M683.104 133.305L916 259.631V300.331L705.119 189.332V370.101L568.974 300.331L621.115 589.455L-32.3832 401.815L-44.5493 218.932L512.198 406.572V205.189L683.104 300.331V133.305Z" fill="#F341F3"/>
</g>
</svg>
