<svg width="189" height="189" viewBox="0 0 189 189" fill="none" xmlns="http://www.w3.org/2000/svg">
<g filter="url(#filter0_f_244_155)">
<circle cx="94.5" cy="94.5" r="67" stroke="white" stroke-width="15"/>
</g>
<circle cx="94.5" cy="94.5" r="67" stroke="white" stroke-width="15"/>
<path d="M93.28 115.96C89.08 115.96 85.14 115.3 81.46 113.98C77.82 112.66 74.92 110.92 72.76 108.76C70.64 106.6 69.6 104.38 69.64 102.1H77.44C77.44 103.5 78.24 104.72 79.84 105.76C81.48 106.8 83.58 107.6 86.14 108.16C88.74 108.68 91.48 108.94 94.36 108.94C98.68 108.94 102.34 108.36 105.34 107.2C108.38 106 109.9 104.3 109.9 102.1C109.9 100.38 109.04 99.14 107.32 98.38C105.6 97.58 103.2 97.08 100.12 96.88C97.08 96.68 92.32 96.56 85.84 96.52H82.84V89.44C89.76 89.44 94.98 89.36 98.5 89.2C102.06 89 104.74 88.6 106.54 88C108.34 87.36 109.24 86.36 109.24 85C109.24 83.8 108.5 82.76 107.02 81.88C105.54 80.96 103.6 80.28 101.2 79.84C98.8 79.36 96.26 79.12 93.58 79.12C89.62 79.12 86.1 79.62 83.02 80.62C79.94 81.62 78.08 83.08 77.44 85H69.64C69.6 82.88 70.64 80.82 72.76 78.82C74.92 76.82 77.82 75.2 81.46 73.96C85.14 72.68 89.08 72.04 93.28 72.04C98 72.04 102.12 72.62 105.64 73.78C109.2 74.9 111.92 76.42 113.8 78.34C115.72 80.26 116.68 82.34 116.68 84.58C116.68 87.54 115.1 90.3 111.94 92.86C113.82 93.7 115.28 94.88 116.32 96.4C117.36 97.88 117.88 99.54 117.88 101.38C117.88 103.78 116.98 106.1 115.18 108.34C113.38 110.54 110.62 112.36 106.9 113.8C103.22 115.24 98.68 115.96 93.28 115.96Z" fill="white"/>
<defs>
<filter id="filter0_f_244_155" x="0.700001" y="0.700001" width="187.6" height="187.6" filterUnits="userSpaceOnUse" color-interpolation-filters="sRGB">
<feFlood flood-opacity="0" result="BackgroundImageFix"/>
<feBlend mode="normal" in="SourceGraphic" in2="BackgroundImageFix" result="shape"/>
<feGaussianBlur stdDeviation="9.65" result="effect1_foregroundBlur_244_155"/>
</filter>
</defs>
</svg>
