<svg width="189" height="189" viewBox="0 0 189 189" fill="none" xmlns="http://www.w3.org/2000/svg">
<g filter="url(#filter0_f_244_151)">
<circle cx="94.5" cy="94.5" r="67" stroke="white" stroke-width="15"/>
</g>
<path d="M70.12 106.8C70.6 106.44 71.7 105.86 73.42 105.06C75.18 104.26 77.14 103.38 79.3 102.42C85.06 99.82 89.96 97.54 94 95.58C98.08 93.58 101.68 91.52 104.8 89.4C107.96 87.28 109.54 85.48 109.54 84C109.54 82.88 108.78 81.88 107.26 81C105.78 80.12 103.82 79.44 101.38 78.96C98.94 78.48 96.38 78.24 93.7 78.24C89.86 78.24 86.46 78.72 83.5 79.68C80.58 80.64 78.74 82.08 77.98 84H70.18C70.1 81.36 71.18 79.08 73.42 77.16C75.7 75.24 78.68 73.8 82.36 72.84C86.04 71.88 89.98 71.4 94.18 71.4C98.34 71.4 102.26 71.88 105.94 72.84C109.62 73.8 112.58 75.24 114.82 77.16C117.1 79.04 118.24 81.32 118.24 84C118.24 86.88 116.68 89.68 113.56 92.4C110.44 95.08 106.74 97.52 102.46 99.72C98.18 101.88 93.02 104.24 86.98 106.8H118.24V114H70.12V106.8Z" fill="white"/>
<circle cx="94.5" cy="94.5" r="67" stroke="white" stroke-width="15"/>
<defs>
<filter id="filter0_f_244_151" x="0.700001" y="0.700001" width="187.6" height="187.6" filterUnits="userSpaceOnUse" color-interpolation-filters="sRGB">
<feFlood flood-opacity="0" result="BackgroundImageFix"/>
<feBlend mode="normal" in="SourceGraphic" in2="BackgroundImageFix" result="shape"/>
<feGaussianBlur stdDeviation="9.65" result="effect1_foregroundBlur_244_151"/>
</filter>
</defs>
</svg>
